<?xml version="1.0" encoding="UTF-8" standalone="no"?>
<!-- Created with Inkscape (http://www.inkscape.org/) -->

<svg
   xmlns:dc="http://purl.org/dc/elements/1.1/"
   xmlns:cc="http://creativecommons.org/ns#"
   xmlns:rdf="http://www.w3.org/1999/02/22-rdf-syntax-ns#"
   xmlns:svg="http://www.w3.org/2000/svg"
   xmlns="http://www.w3.org/2000/svg"
   xmlns:sodipodi="http://sodipodi.sourceforge.net/DTD/sodipodi-0.dtd"
   xmlns:inkscape="http://www.inkscape.org/namespaces/inkscape"
   width="550"
   height="330"
   id="svg2"
   version="1.1"
   inkscape:version="0.47 r22583"
   sodipodi:docname="butterfly.svg">
  <defs
     id="defs4">
    <inkscape:perspective
       sodipodi:type="inkscape:persp3d"
       inkscape:vp_x="0 : 526.18109 : 1"
       inkscape:vp_y="0 : 1000 : 0"
       inkscape:vp_z="744.09448 : 526.18109 : 1"
       inkscape:persp3d-origin="372.04724 : 350.78739 : 1"
       id="perspective10" />
    <inkscape:perspective
       id="perspective2824"
       inkscape:persp3d-origin="0.5 : 0.33333333 : 1"
       inkscape:vp_z="1 : 0.5 : 1"
       inkscape:vp_y="0 : 1000 : 0"
       inkscape:vp_x="0 : 0.5 : 1"
       sodipodi:type="inkscape:persp3d" />
    <inkscape:perspective
       id="perspective2840"
       inkscape:persp3d-origin="0.5 : 0.33333333 : 1"
       inkscape:vp_z="1 : 0.5 : 1"
       inkscape:vp_y="0 : 1000 : 0"
       inkscape:vp_x="0 : 0.5 : 1"
       sodipodi:type="inkscape:persp3d" />
    <inkscape:perspective
       id="perspective2866"
       inkscape:persp3d-origin="0.5 : 0.33333333 : 1"
       inkscape:vp_z="1 : 0.5 : 1"
       inkscape:vp_y="0 : 1000 : 0"
       inkscape:vp_x="0 : 0.5 : 1"
       sodipodi:type="inkscape:persp3d" />
    <inkscape:perspective
       id="perspective2922"
       inkscape:persp3d-origin="0.5 : 0.33333333 : 1"
       inkscape:vp_z="1 : 0.5 : 1"
       inkscape:vp_y="0 : 1000 : 0"
       inkscape:vp_x="0 : 0.5 : 1"
       sodipodi:type="inkscape:persp3d" />
    <inkscape:perspective
       id="perspective2946"
       inkscape:persp3d-origin="0.5 : 0.33333333 : 1"
       inkscape:vp_z="1 : 0.5 : 1"
       inkscape:vp_y="0 : 1000 : 0"
       inkscape:vp_x="0 : 0.5 : 1"
       sodipodi:type="inkscape:persp3d" />
    <inkscape:perspective
       id="perspective2968"
       inkscape:persp3d-origin="0.5 : 0.33333333 : 1"
       inkscape:vp_z="1 : 0.5 : 1"
       inkscape:vp_y="0 : 1000 : 0"
       inkscape:vp_x="0 : 0.5 : 1"
       sodipodi:type="inkscape:persp3d" />
    <inkscape:perspective
       id="perspective2999"
       inkscape:persp3d-origin="0.5 : 0.33333333 : 1"
       inkscape:vp_z="1 : 0.5 : 1"
       inkscape:vp_y="0 : 1000 : 0"
       inkscape:vp_x="0 : 0.5 : 1"
       sodipodi:type="inkscape:persp3d" />
  </defs>
  <sodipodi:namedview
     id="base"
     pagecolor="#ffffff"
     bordercolor="#666666"
     borderopacity="1.0"
     inkscape:pageopacity="0.0"
     inkscape:pageshadow="2"
     inkscape:zoom="1.01"
     inkscape:cx="350"
     inkscape:cy="387.56776"
     inkscape:document-units="px"
     inkscape:current-layer="layer1"
     showgrid="false"
     inkscape:window-width="1920"
     inkscape:window-height="1125"
     inkscape:window-x="0"
     inkscape:window-y="25"
     inkscape:window-maximized="1" />
  <metadata
     id="metadata7">
    <rdf:RDF>
      <cc:Work
         rdf:about="">
        <dc:format>image/svg+xml</dc:format>
        <dc:type
           rdf:resource="http://purl.org/dc/dcmitype/StillImage" />
        <dc:title />
      </cc:Work>
    </rdf:RDF>
  </metadata>
  <g
     inkscape:label="Ebene 1"
     inkscape:groupmode="layer"
     id="layer1"
     transform="translate(0,-722.36218)">
    <path
       style="fill:#ff5f00;fill-opacity:1;stroke:#000000;stroke-width:1px;stroke-linecap:butt;stroke-linejoin:miter;stroke-opacity:1"
       d="m 303.79915,827.39188 c 7.88628,-10.35286 36.20323,-12.00888 56,-15.42857 19.79677,-3.41969 44.28024,-5.26934 62.28571,-4.57143 18.00547,0.69791 31.03701,3.95418 45.14286,6.85714 14.10585,2.90296 27.27883,4.83675 39.42857,10.28572 12.14974,5.44896 28.33403,14.85803 32.57143,21.71428 4.23739,6.85625 1.81481,5.02056 1.14286,9.14286 -0.67195,4.1223 -4.19037,9.60381 -6.85715,14.28571 -2.66678,4.6819 -5.45137,8.64347 -9.14285,13.71429 -3.69148,5.07082 -7.96288,13.93393 -13.14286,16.57143 -5.17998,2.6375 -10.02199,-0.59704 -13.71429,0.57143 -3.6923,1.16847 -4.75371,3.64854 -8,5.14285 -3.24629,1.49431 -6.45894,0.64105 -11.42857,3.42858 -4.96963,2.78752 -9.38565,9.14626 -16.57143,14.85714 -7.18578,5.71087 -20.02516,14.47696 -26.85714,18.85714 -6.83198,4.38017 -9.9089,6.82414 -13.71428,8 -3.80539,1.17585 -5.08411,-1.54074 -8,0.57143 -2.91589,2.11217 -3.62447,8.56784 -5.14286,12.57143 -1.51839,4.00358 -1.41505,6.2417 -4,11.42857 -2.58495,5.18686 -7.01928,11.45576 -12.57143,18.85714 -5.55215,7.40138 -14.8938,20.30438 -21.14286,25.14288 -6.24906,4.8385 -8.18996,3.9058 -13.14285,6.2857 -4.95289,2.3799 -11.71478,8.2645 -16.57143,8 -4.85666,-0.2646 -4.11778,-5.3761 -9.14286,-5.7143 -5.02508,-0.3382 -12.31989,7.5731 -17.71429,8 -5.3944,0.4269 -7.99014,-3.8416 -12.57142,-3.4286 -4.58128,0.4131 -9.64915,6.6627 -13.14286,6.2858 -3.49371,-0.377 -0.48934,7.4207 -5.14286,-4 -4.65352,-11.4208 6.9962,-45.79255 9.14286,-66.85719 2.14666,-21.06464 3.54489,-45.89 4,-59.42857 0.45511,-13.53858 -1.0119,-14.88582 0,-21.71429 1.0119,-6.82847 4.36037,-12.261 5.71428,-18.85714 1.35391,-6.59614 1.91061,-13.79881 2.28572,-20.57143 0.37511,-6.77263 -7.88628,-9.64714 0,-20 z"
       id="path2830"
       sodipodi:nodetypes="czzzzzzzzzzzzzzzzzzzzzzzzzzzzzzzzz" />
    <path
       style="fill:#ff5f00;fill-opacity:1;stroke:#000000;stroke-width:1px;stroke-linecap:butt;stroke-linejoin:miter;stroke-opacity:1"
       d="m 246.47606,828.33967 c -7.88628,-10.35286 -36.20323,-12.00888 -56,-15.42857 -19.79677,-3.41969 -44.28025,-5.26934 -62.28572,-4.57143 -18.00547,0.69791 -31.037007,3.95418 -45.142857,6.85714 -14.10585,2.90296 -27.27883,4.83675 -39.42857,10.28572 -12.14974,5.44896 -28.33403,14.85803 -32.57143,21.71428 -4.2373902,6.85625 -1.81481,5.02056 -1.14286,9.14286 0.67195,4.1223 4.19037,9.60381 6.85715,14.28571 2.66678,4.6819 5.45137,8.64347 9.14285,13.71429 3.69148,5.07082 7.96288,13.93393 13.14286,16.57143 5.17998,2.6375 10.02199,-0.59704 13.71429,0.57143 3.6923,1.16847 4.75371,3.64854 8,5.14285 3.24629,1.49431 6.45894,0.64105 11.42857,3.42858 4.96963,2.78752 9.38565,9.14626 16.57143,14.85714 7.18578,5.71087 20.025157,14.47696 26.857137,18.85714 6.83198,4.38017 9.9089,6.82414 13.71428,8 3.80539,1.17585 5.08411,-1.54074 8,0.57143 2.91589,2.11217 3.62447,8.56784 5.14286,12.57143 1.51839,4.00358 1.41505,6.2417 4,11.42857 2.58495,5.18686 7.01928,11.45576 12.57143,18.85714 5.55215,7.40139 14.89381,20.30439 21.14287,25.14289 6.24906,4.8384 8.18996,3.9058 13.14285,6.2857 4.95289,2.3799 11.71478,8.2645 16.57143,8 4.85666,-0.2646 4.11778,-5.3761 9.14286,-5.7143 5.02508,-0.3382 12.31989,7.5731 17.71429,8 5.3944,0.4269 7.99014,-3.8417 12.57141,-3.4286 4.58128,0.4131 9.64915,6.6627 13.14286,6.2857 3.49371,-0.3769 0.48934,7.4208 5.14286,-4 4.65352,-11.4207 -6.9962,-45.79246 -9.14286,-66.8571 -2.14666,-21.06464 -3.54489,-45.89 -4,-59.42857 -0.45511,-13.53858 1.0119,-14.88582 0,-21.71429 -1.0119,-6.82847 -4.36037,-12.261 -5.71428,-18.85714 -1.35391,-6.59614 -1.91061,-13.79881 -2.28571,-20.57143 -0.37511,-6.77263 7.88627,-9.64714 0,-20 z"
       id="path2830-0"
       sodipodi:nodetypes="czzzzzzzzzzzzzzzzzzzzzzzzzzzzzzzzz" />
    <path
       style="fill:#2b0000;stroke:#000000;stroke-width:1px;stroke-linecap:butt;stroke-linejoin:miter;stroke-opacity:1"
       d="m 275.22772,807.9633 c 3.28251,-2.15514 12,6.28573 12,6.28573 l 9.14286,17.14285 4,12 -1.71429,24 -1.71428,18.28572 -2.28572,13.14285 -1.71428,44.57143 -2.28572,29.14286 -6.28571,35.42856 -4,22.8572 -6.28572,0 c 0,0 -60.48051,-182.39812 1.14286,-222.8572 z"
       id="path2856"
       sodipodi:nodetypes="ccccccccccccs" />
    <path
       style="fill:#2b0000;stroke:none"
       d="m 274.65629,808.24903 c -3.63928,-2.3863 -12.57143,6.28572 -12.57143,6.28572 l -9.14286,17.14285 -4,12 1.71429,24 1.71428,18.28572 2.28572,13.14285 1.71428,44.57143 2.28572,29.14286 6.28571,35.42854 4,22.8572 6.28572,0 c 0,0 61.23278,-182.3319 -0.57143,-222.85717 z"
       id="path2856-6"
       sodipodi:nodetypes="ccccccccccccs" />
    <path
       style="fill:none;stroke:#000000;stroke-width:1.0304625px;stroke-linecap:butt;stroke-linejoin:miter;stroke-opacity:1"
       d="M 267.21249,812.5195 204.95724,738.83568"
       id="path2912" />
    <path
       style="fill:none;stroke:#000000;stroke-width:1.03439045px;stroke-linecap:butt;stroke-linejoin:miter;stroke-opacity:1"
       d="m 281.81634,812.51755 62.25132,-74.25132"
       id="path2912-1" />
    <path
       sodipodi:type="arc"
       style="fill:#2b0000;fill-opacity:1;stroke:none"
       id="path2936"
       sodipodi:cx="12.571428"
       sodipodi:cy="675.50507"
       sodipodi:rx="2.2857144"
       sodipodi:ry="3.7142856"
       d="m 14.857143,675.50507 a 2.2857144,3.7142856 0 1 1 -4.571429,0 2.2857144,3.7142856 0 1 1 4.571429,0 z"
       transform="matrix(1.2892594,-1.4343021,1.4073234,1.3139748,-760.77704,-129.31632)"
       inkscape:transform-center-x="42.53447"
       inkscape:transform-center-y="2.3942515e-05" />
    <path
       sodipodi:type="arc"
       style="fill:#2b0000;fill-opacity:1;stroke:none"
       id="path2936-8"
       sodipodi:cx="12.571428"
       sodipodi:cy="675.50507"
       sodipodi:rx="2.2857144"
       sodipodi:ry="3.7142856"
       d="m 14.857143,675.50507 a 2.2857144,3.7142856 0 1 1 -4.571429,0 2.2857144,3.7142856 0 1 1 4.571429,0 z"
       transform="matrix(-1.2892594,-1.4343021,-1.4073234,1.3139748,1311.2324,-131.31639)"
       inkscape:transform-center-x="-42.534434"
       inkscape:transform-center-y="2.3942515e-05" />
    <path
       style="fill:#d15600;fill-opacity:1;stroke:#000000;stroke-width:0.85708624px;stroke-linecap:butt;stroke-linejoin:miter;stroke-opacity:1"
       d="m 234.37144,834.99251 c -6.76444,-8.86645 -31.05324,-10.28471 -48.03388,-13.21342 -16.98063,-2.92871 -37.98129,-4.51279 -53.42544,-3.91508 -15.44415,0.5977 -26.62192,3.38645 -38.721177,5.87262 -12.09926,2.48617 -23.39836,4.14232 -33.81977,8.80895 -10.42141,4.66663 -24.30345,12.7248 -27.93807,18.59666 -3.63462,5.87187 -1.55665,4.29974 -0.98029,7.83018 0.57636,3.53044 3.59428,8.22494 5.88171,12.23464 2.28742,4.0097 4.6759,7.40249 7.84225,11.74526 3.16636,4.34278 6.83015,11.93337 11.27326,14.19219 4.44312,2.25883 8.59634,-0.51132 11.76341,0.48939 3.16706,1.00071 4.07748,3.1247 6.86198,4.40447 2.7845,1.27975 5.54014,0.549 9.80283,2.93631 4.26269,2.3873 8.05052,7.83309 14.214107,12.72403 6.16358,4.89094 17.17653,12.39844 23.03665,16.14973 5.86011,3.75129 8.49933,5.84437 11.76339,6.8514 3.26406,1.00703 4.36088,-1.31952 6.86198,0.48939 2.5011,1.80892 3.10888,7.33772 4.41128,10.76648 1.30239,3.4288 1.21375,5.3456 3.43099,9.7877 2.21723,4.4422 6.02077,9.811 10.78312,16.1498 4.76234,6.3387 12.77513,17.3892 18.13524,21.53289 5.36012,4.1438 7.02493,3.345 11.27326,5.3833 4.24833,2.0382 10.04832,7.078 14.2141,6.8514 4.16579,-0.2266 3.53202,-4.6042 7.84227,-4.8938 4.31025,-0.2898 10.56736,6.4858 15.1944,6.8514 4.62703,0.3655 6.85352,-3.2902 10.7831,-2.9364 3.92958,0.3538 8.27653,5.7061 11.27325,5.3833 2.99673,-0.3228 0.41973,6.3553 4.41128,-3.4257 3.99155,-9.7811 -6.00097,-39.21789 -7.84227,-57.25819 -1.84129,-18.04028 -3.04062,-39.30134 -3.43099,-50.89611 -0.39037,-11.59478 0.86796,-12.74859 0,-18.59666 -0.86795,-5.84808 -3.7401,-10.50063 -4.90141,-16.14973 -1.16131,-5.6491 -1.63882,-11.81765 -1.96056,-17.6179 -0.32175,-5.80025 6.76443,-8.26205 0,-17.1285 z"
       id="path2830-0-5"
       sodipodi:nodetypes="czzzzzzzzzzzzzzzzzzzzzzzzzzzzzzzzz" />
    <path
       style="fill:#d15600;fill-opacity:1;stroke:#000000;stroke-width:0.85708624px;stroke-linecap:butt;stroke-linejoin:miter;stroke-opacity:1"
       d="m 316.45984,833.66146 c 6.76444,-8.86645 31.05324,-10.28471 48.03388,-13.21342 16.98063,-2.92871 37.98129,-4.51279 53.42544,-3.91508 15.44415,0.5977 26.62192,3.38645 38.72118,5.87262 12.09926,2.48617 23.39836,4.14232 33.81977,8.80895 10.42141,4.66663 24.30345,12.7248 27.93807,18.59666 3.63462,5.87187 1.55665,4.29974 0.98029,7.83018 -0.57636,3.53044 -3.59428,8.22494 -5.88171,12.23464 -2.28742,4.0097 -4.6759,7.40249 -7.84225,11.74526 -3.16636,4.34278 -6.83015,11.93337 -11.27326,14.19219 -4.44312,2.25883 -8.59634,-0.51132 -11.76341,0.48939 -3.16706,1.00071 -4.07748,3.1247 -6.86198,4.40447 -2.7845,1.27975 -5.54014,0.549 -9.80283,2.93631 -4.26269,2.3873 -8.05052,7.83309 -14.21411,12.72403 -6.16358,4.89094 -17.17653,12.39844 -23.03665,16.14973 -5.86011,3.75129 -8.49933,5.84437 -11.76339,6.8514 -3.26406,1.00703 -4.36088,-1.31952 -6.86198,0.48939 -2.5011,1.80892 -3.10888,7.33772 -4.41128,10.76648 -1.30239,3.4288 -1.21375,5.3456 -3.43099,9.7877 -2.21723,4.44224 -6.02077,9.81104 -10.78312,16.14984 -4.76234,6.3387 -12.77513,17.3892 -18.13524,21.5329 -5.36012,4.1438 -7.02493,3.345 -11.27326,5.3833 -4.24833,2.0382 -10.04832,7.078 -14.2141,6.8514 -4.16579,-0.2266 -3.53202,-4.6042 -7.84227,-4.8938 -4.31025,-0.2898 -10.56736,6.4858 -15.1944,6.8514 -4.62703,0.3655 -6.85352,-3.2902 -10.7831,-2.9364 -3.92958,0.3538 -8.27653,5.7061 -11.27325,5.3833 -2.99673,-0.3228 -0.41973,6.3553 -4.41128,-3.4257 -3.99155,-9.7811 6.00097,-39.2179 7.84227,-57.25824 1.84129,-18.04028 3.04062,-39.30134 3.43099,-50.89611 0.39037,-11.59478 -0.86796,-12.74859 0,-18.59666 0.86795,-5.84808 3.7401,-10.50063 4.90141,-16.14973 1.16131,-5.6491 1.63882,-11.81765 1.96056,-17.6179 0.32175,-5.80025 -6.76443,-8.26205 0,-17.1285 z"
       id="path2830-0-5-4"
       sodipodi:nodetypes="czzzzzzzzzzzzzzzzzzzzzzzzzzzzzzzzz" />
  </g>
</svg>
