<?xml version="1.0" encoding="UTF-8" standalone="no"?>
<!-- Created with Inkscape (http://www.inkscape.org/) -->

<svg
   xmlns:dc="http://purl.org/dc/elements/1.1/"
   xmlns:cc="http://creativecommons.org/ns#"
   xmlns:rdf="http://www.w3.org/1999/02/22-rdf-syntax-ns#"
   xmlns:svg="http://www.w3.org/2000/svg"
   xmlns="http://www.w3.org/2000/svg"
   xmlns:xlink="http://www.w3.org/1999/xlink"
   xmlns:sodipodi="http://sodipodi.sourceforge.net/DTD/sodipodi-0.dtd"
   xmlns:inkscape="http://www.inkscape.org/namespaces/inkscape"
   width="150"
   height="200"
   id="svg9613"
   version="1.1"
   inkscape:version="0.47 r22583"
   sodipodi:docname="Neues Dokument 2">
  <defs
     id="defs3">
    <inkscape:perspective
       sodipodi:type="inkscape:persp3d"
       inkscape:vp_x="0 : 526.18109 : 1"
       inkscape:vp_y="0 : 1000 : 0"
       inkscape:vp_z="744.09448 : 526.18109 : 1"
       inkscape:persp3d-origin="372.04724 : 350.78739 : 1"
       id="perspective9619" />
    <inkscape:perspective
       id="perspective8857"
       inkscape:persp3d-origin="0.5 : 0.33333333 : 1"
       inkscape:vp_z="1 : 0.5 : 1"
       inkscape:vp_y="0 : 1000 : 0"
       inkscape:vp_x="0 : 0.5 : 1"
       sodipodi:type="inkscape:persp3d" />
    <radialGradient
       inkscape:collect="always"
       xlink:href="#linearGradient4728"
       id="radialGradient24738"
       gradientUnits="userSpaceOnUse"
       gradientTransform="matrix(1.105728,5.562257e-6,-4.50907e-7,0.401642,-231.79969,959.03542)"
       cx="277.17303"
       cy="38.984623"
       fx="277.17303"
       fy="38.984623"
       r="78.089012" />
    <linearGradient
       id="linearGradient4728">
      <stop
         style="stop-color:#fffafa;stop-opacity:1.0000000;"
         offset="0.00000000"
         id="stop4730" />
      <stop
         id="stop5466"
         offset="0.50000000"
         style="stop-color:#bdfafa;stop-opacity:1.0000000;" />
      <stop
         style="stop-color:#66fafa;stop-opacity:1.0000000;"
         offset="1.0000000"
         id="stop5468" />
    </linearGradient>
    <radialGradient
       inkscape:collect="always"
       xlink:href="#linearGradient4728"
       id="radialGradient26198"
       gradientUnits="userSpaceOnUse"
       gradientTransform="matrix(0.502246,-0.08007406,0.02795602,0.234185,-70.56149,926.36862)"
       cx="277.17303"
       cy="38.984623"
       fx="277.17303"
       fy="38.984623"
       r="78.089012" />
    <linearGradient
       id="linearGradient8867">
      <stop
         style="stop-color:#fffafa;stop-opacity:1.0000000;"
         offset="0.00000000"
         id="stop8869" />
      <stop
         id="stop8871"
         offset="0.50000000"
         style="stop-color:#bdfafa;stop-opacity:1.0000000;" />
      <stop
         style="stop-color:#66fafa;stop-opacity:1.0000000;"
         offset="1.0000000"
         id="stop8873" />
    </linearGradient>
    <radialGradient
       inkscape:collect="always"
       xlink:href="#linearGradient4728"
       id="radialGradient24742"
       gradientUnits="userSpaceOnUse"
       gradientTransform="matrix(0.842765,-0.122557,0.04691006,0.35843,-163.67359,959.29462)"
       cx="277.17303"
       cy="38.984623"
       fx="277.17303"
       fy="38.984623"
       r="78.089012" />
    <linearGradient
       id="linearGradient8876">
      <stop
         style="stop-color:#fffafa;stop-opacity:1.0000000;"
         offset="0.00000000"
         id="stop8878" />
      <stop
         id="stop8880"
         offset="0.50000000"
         style="stop-color:#bdfafa;stop-opacity:1.0000000;" />
      <stop
         style="stop-color:#66fafa;stop-opacity:1.0000000;"
         offset="1.0000000"
         id="stop8882" />
    </linearGradient>
    <radialGradient
       inkscape:collect="always"
       xlink:href="#linearGradient4728"
       id="radialGradient6210"
       gradientUnits="userSpaceOnUse"
       gradientTransform="matrix(1.387229,0.01949932,-0.00475452,0.179508,-188.39019,287.99345)"
       cx="277.17303"
       cy="38.984623"
       fx="277.17303"
       fy="38.984623"
       r="78.089012" />
    <linearGradient
       id="linearGradient8885">
      <stop
         style="stop-color:#fffafa;stop-opacity:1.0000000;"
         offset="0.00000000"
         id="stop8887" />
      <stop
         id="stop8889"
         offset="0.50000000"
         style="stop-color:#bdfafa;stop-opacity:1.0000000;" />
      <stop
         style="stop-color:#66fafa;stop-opacity:1.0000000;"
         offset="1.0000000"
         id="stop8891" />
    </linearGradient>
    <radialGradient
       inkscape:collect="always"
       xlink:href="#linearGradient4728"
       id="radialGradient5472"
       gradientUnits="userSpaceOnUse"
       gradientTransform="matrix(1.375218,3.382954e-6,-5.608027e-7,0.244278,-632.62584,208.60375)"
       cx="277.17303"
       cy="38.984623"
       fx="277.17303"
       fy="38.984623"
       r="78.089012" />
    <linearGradient
       id="linearGradient8894">
      <stop
         style="stop-color:#fffafa;stop-opacity:1.0000000;"
         offset="0.00000000"
         id="stop8896" />
      <stop
         id="stop8898"
         offset="0.50000000"
         style="stop-color:#bdfafa;stop-opacity:1.0000000;" />
      <stop
         style="stop-color:#66fafa;stop-opacity:1.0000000;"
         offset="1.0000000"
         id="stop8900" />
    </linearGradient>
    <radialGradient
       inkscape:collect="always"
       xlink:href="#linearGradient4728"
       id="radialGradient11100"
       gradientUnits="userSpaceOnUse"
       gradientTransform="matrix(1.387229,0.01949932,-0.00475452,0.179508,-308.92599,986.89385)"
       cx="277.17303"
       cy="38.984623"
       fx="277.17303"
       fy="38.984623"
       r="78.089012" />
  </defs>
  <sodipodi:namedview
     inkscape:document-units="mm"
     id="base"
     pagecolor="#ffffff"
     bordercolor="#666666"
     borderopacity="1.0"
     inkscape:pageopacity="0.0"
     inkscape:pageshadow="2"
     inkscape:zoom="1.0824912"
     inkscape:cx="46.365951"
     inkscape:cy="190.53806"
     inkscape:current-layer="layer1"
     showgrid="false"
     inkscape:window-width="1080"
     inkscape:window-height="900"
     inkscape:window-x="4"
     inkscape:window-y="49"
     inkscape:window-maximized="0" />
  <metadata
     id="metadata4">
    <rdf:RDF>
      <cc:Work
         rdf:about="">
        <dc:format>image/svg+xml</dc:format>
        <dc:type
           rdf:resource="http://purl.org/dc/dcmitype/StillImage" />
        <dc:title></dc:title>
      </cc:Work>
    </rdf:RDF>
  </metadata>
  <g
     inkscape:label="Layer 1"
     inkscape:groupmode="layer"
     id="layer1"
     transform="translate(0,-852.36218)">
    <path
       style="fill:url(#radialGradient11100);fill-opacity:1;fill-rule:nonzero;stroke:none"
       id="path6208"
       d="m 69.74063,990.70435 c 4.28329,0.1832 8.57513,0.1715 12.86333,0.2191 3.05289,0.032 6.10535,0.079 9.15807,0.1178 2.73089,6e-4 5.42796,-0.065 7.98491,0.5588 4.83019,3.5557 -3.68449,5.929 -8.03152,5.9604 -2.74265,-0.061 -5.48624,-0.095 -8.22962,-0.133 -2.72604,-0.043 -5.4522,-0.08 -8.17844,-0.1154 -2.56713,0.2385 -4.77921,-0.5972 -7.15476,-1.2234 -2.353,-0.3255 -4.46232,-1.1498 -6.4868,-2.1556 -2.06916,-0.7303 -4.23849,-0.9246 -6.46952,-1.011 -4.52933,-0.5093 -11.91547,3.4346 -0.091,-1.9553 -1.91986,1.6172 -1.18342,1.7234 1.18491,1.8662 3.04699,0.06 6.09506,0.071 9.14221,0.1271 3.40796,0.064 6.81703,0.087 10.22533,0.139 3.51957,0.052 7.03887,0.1123 10.55872,0.1561 2.96743,0.031 5.93466,0.071 8.90174,0.116 2.73624,0.039 5.47269,0.07 8.20877,0.1144 3.62679,0.2005 4.21534,1.7918 3.59431,4.4456 -2.00844,4.35495 -7.94838,4.76595 -12.63236,4.67665 -2.4777,-0.033 -4.81316,-0.7093 -7.05578,-1.5105 -2.14998,-0.362 -4.18781,-0.708 -6.25958,-1.30575 -7.18811,0.44145 -3.86748,0.1982 2.44903,-2.9583 3.57162,0.1109 7.14725,0.1466 10.72163,0.1786 5.69405,0.5678 11.1831,-2.0248 1.10935,2.46 0.38332,-1.6772 -3.02373,-1.0331 -5.04205,-1.0541 -3.33958,-0.057 -6.67979,-0.086 -10.01983,-0.1252 -2.70547,-0.023 -5.40997,-0.1691 -8.09687,0.054 -2.58514,0.3354 -5.20946,0.2228 -7.81239,0.178 -3.68333,-4.3294 9.59983,-3.21 13.61104,-3.1127 2.9617,0.3439 5.93174,0.5298 8.92692,0.5786 4.97381,4.01565 -8.84267,5.07845 -12.41225,4.63575 -3.50038,-1.01425 -6.34827,-3.03525 -10.06219,-3.46095 -2.97131,-0.1332 -6.02221,-0.2491 -8.80318,0.311 13.66737,-6.8632 1.15019,4.46725 -4.45588,2.4987 -2.48714,-1.5599 -4.66567,-1.6839 -7.55984,-1.2628 8.15467,-5.1729 5.75721,-2.0887 2.98369,1.78545 -9.41954,5.0051 -10.00144,2.8839 1.52639,-1.70255 2.9548,0.6326 5.98036,0.9831 8.9017,0.5936 -13.89362,6.58695 0.20925,-2.5671 3.71305,-4.139 2.34298,-1.1083 4.84934,-0.9761 7.40298,-0.6501 3.24991,0.3781 3.75911,2.2551 3.76899,4.6778 -5.47467,4.96465 -7.47898,4.32895 -13.18624,2.67565 -2.1108,-1.244 -4.58399,-1.9315 -6.60157,-2.06945 7.4142,-4.5151 5.18173,-1.587 12.22883,-0.6027 2.69434,0.1237 5.39735,0.123 8.0962,0.1563 2.62536,0.056 5.25273,-0.068 7.83188,0.3563 2.32847,1.38995 4.13646,1.14315 6.64936,0.1943 -14.09447,6.05465 1.26889,-1.6948 7.39977,-0.8557 2.59154,0.2768 3.79958,1.74875 4.81955,3.58695 -7.71998,4.5818 -4.41039,3.3521 -8.00415,-0.8251 -5.10479,-2.40705 13.23848,-6.88315 -5.37933,0.2518 2.81964,-4.62875 7.81349,-3.87745 13.5691,-3.70605 3.91078,-0.096 7.35792,1.73655 10.57133,3.41475 -2.01311,3.4431 -3.86306,2.9461 -7.65098,-0.1351 -1.59053,-1.5714 -3.52396,-2.66545 -5.70273,-3.56015 -2.84125,-0.8415 -5.95092,-0.5407 -8.74616,0.3336 -4.49724,0.3007 -13.32131,3.56285 -1.25538,-1.8505 -1.36297,2.3129 2.34467,1.6827 4.6306,1.722 3.98031,-0.061 7.74771,-0.093 11.49873,1.0316 2.34234,1.10405 4.91694,1.26785 7.10714,2.47015 1.64626,1.4594 0.70061,2.1003 -0.0359,3.6649 -0.79653,-0.177 -8.30556,5.2251 -3.6769,0.6767 0.11808,-1.974 -1.18036,-3.3042 -2.77576,-4.5763 -6.52178,1.898 4.71135,-9.14775 0.99557,0.8196 0.22462,5.9109 -7.53631,7.7435 -12.38852,4.0789 -2.52342,-2.0995 -5.02079,-3.8562 -8.64821,-3.2438 -3.29891,1.5069 7.15402,-3.31535 5.38211,-2.4617 -21.62735,10.4193 0.9021,-2.84115 -6.20858,3.0132 -8.81122,5.1259 -8.27739,1.4824 -14.74095,-1.9853 -6.54227,0.4521 5.18497,-6.59195 1.73871,-0.7756 -4.35931,3.8402 -7.7629,4.0546 -12.89716,4.1668 -2.70121,-0.1502 -5.19716,-0.9886 -7.61201,-1.9507 -10.27867,0.5957 12.88965,-6.92335 -7.20042,2.0773 -3.44441,0.045 -2.92028,-2.9853 -2.88885,-5.2355 -0.84373,-5.06865 6.48464,-7.33835 11.67933,-6.63175 3.46049,2.0276 7.19398,3.1949 11.24599,4.0436 13.32544,6.59735 -4.92764,4.22395 -11.19589,2.2597 -10.79047,-0.2341 -8.41348,-5.9342 1.28257,-5.6926 3.11315,0.072 6.22742,0.1057 9.34131,0.1544 3.49376,-0.019 6.96245,0.091 10.43209,0.3981 5.12356,0.6553 10.6655,-1.3772 -0.99979,3.8399 -0.65688,0.2938 -7.62034,-2.3659 -8.42981,-2.576 2.94141,-5.1935 -22.69167,1.4995 -19.39829,0.01 9.59733,-4.3534 4.31455,-1.8603 2.05123,-0.2592 0.25314,2.4226 8.02481,1.7218 11.66288,1.752 3.93926,0.037 7.87877,0.07 11.81714,0.1412 5.45275,0.1194 10.90772,0.1702 16.36199,0.2408 5.15286,1.2008 9.84002,2.73365 15.39306,2.95635 8.91483,1.758 2.0238,4.3628 -3.62855,6.909 8.73489,-4.191 2.91713,-2.0177 9.27947,-1.8306 0.183,0 0.366,0 0.54898,0.01 l -6.30772,3.6793 c -0.18413,0 -0.36828,-0.01 -0.55244,-0.01 -6.77343,-0.3602 -4.70796,-3.7818 3.1768,-5.7574 -7.30025,3.5699 -1.98696,2.0868 -8.72607,0.6005 -5.49686,-0.3133 -10.19594,-1.9987 -15.39159,-2.9328 -5.46574,-0.083 -10.93115,-0.1853 -16.39799,-0.2198 -3.92812,-0.039 -7.85533,-0.1163 -11.78342,-0.1591 -3.7598,-0.069 -13.45248,0.8987 -12.48744,-3.07685 9.92645,-7.2355 18.45945,-9.1836 30.35602,-5.3304 15.63881,3.8354 5.7139,6.3455 -2.7671,5.5896 -3.48588,-0.2632 -6.98154,-0.2491 -10.48079,-0.3087 -3.12547,-0.039 -6.25091,-0.082 -9.37579,-0.1411 -5.58678,-0.079 6.74115,-5.8967 11.15845,-1.3012 12.61208,4.06515 6.30291,7.10645 -1.30851,4.59525 -4.06066,-0.8632 -7.64795,-2.27355 -11.25051,-4.06155 -7.18061,-0.2004 4.5805,-5.7713 1.60448,0.3073 -0.0504,1.8552 -0.86067,4.71685 2.14042,4.17145 -13.96807,6.6199 1.75326,-3.39975 7.47737,-1.67365 2.36536,0.92495 4.82453,1.70835 7.47677,1.71645 7.25308,-0.3003 2.35623,0.3512 -0.49757,2.063 2.12556,-3.509 6.99013,-7.21055 11.81028,-5.15155 5.57958,3.14795 10.51381,4.80985 1.07513,7.68715 2.7774,-2.1676 5.74687,-3.805 9.57761,-4.9558 0.87329,-0.2624 3.37633,-1.28265 2.56547,-0.9048 -1.96266,0.9148 -7.88647,3.6041 -5.89901,2.7277 2.66661,-1.1758 5.11332,-2.7595 7.98386,-3.55285 3.76521,-0.088 6.36663,1.60405 8.95055,3.84695 10.5131,7.3523 -4.44328,8.067 -1.02609,1.8416 1.15928,-4.5006 6.8596,-8.34635 12.47235,-6.90495 1.78784,1.5354 3.17042,3.09325 3.28059,5.35385 -1.83983,2.7925 -6.58756,7.1152 -10.2496,4.9083 0.2032,-1.9087 1.52679,-2.0536 0.26537,-3.35 -2.15916,-0.9442 -4.70209,-1.1706 -6.85529,-2.2626 -3.69273,-1.0271 -7.47059,-0.8705 -11.34975,-0.8797 -2.78299,-0.045 -7.06151,0.1813 -5.62169,-3.13455 5.60206,-2.5522 8.92372,-3.3054 14.638,-4.2367 2.97249,-0.6986 6.18216,-1.0041 9.07427,0.063 2.2568,0.9188 4.19102,2.1752 5.85945,3.755 4.78177,3.95615 1.50063,6.16675 -5.45111,6.76195 -3.17865,-1.6897 -6.51659,-3.2766 -10.40922,-3.1101 -6.3248,-0.2734 -9.83477,0.4617 -0.84397,-3.56935 -12.47517,6.33115 0.93755,-3.5543 5.60435,0.1391 3.82281,4.59575 1.18596,6.17895 -5.38199,7.15785 -0.9602,-1.7233 -2.00581,-2.8907 -4.43029,-3.0989 -17.06392,-2.1533 14.79605,-5.20445 -7.12403,1.1703 -2.64581,0.7668 -4.55806,0.7158 -6.95145,-0.5183 -2.56961,-0.2313 -5.1541,-0.2634 -7.74776,-0.2745 -2.71682,-0.036 -5.44706,0.017 -8.1502,-0.2214 -6.70899,-1.2722 -10.63758,-3.45395 0.23408,-6.96785 2.44458,0.4237 4.63527,1.6034 6.92132,2.5683 7.32896,2.01945 3.31228,1.60275 -0.21465,3.53835 0.0595,-2.22615 -0.16285,-3.58895 -3.20622,-3.84175 -2.53674,-0.2045 -4.85192,-0.095 -7.17401,0.9222 13.37378,-6.4057 0.1386,2.57085 -3.70069,4.17155 -3.04332,0.034 -5.99606,-0.3608 -8.99164,-0.7918 10.14358,-5.57465 1.67969,0.4255 -2.29843,0.6347 2.30049,-4.46015 3.68295,-6.07725 10.25406,-8.21585 2.97056,-0.3383 5.26142,0.1799 7.78182,1.6146 8.46832,2.082 -9.63771,4.03405 -2.85556,0.4332 2.27556,-1.2082 4.65376,-2.2752 6.98064,-3.4128 2.99325,-0.1999 6.03672,-0.1802 9.04775,0 3.6369,0.64 6.47388,2.7035 10.04916,3.5342 7.79479,0.6042 5.48306,-0.1884 -0.23257,2.5976 -2.98928,-0.067 -5.93317,-0.3715 -8.90321,-0.6027 -7.76147,-0.3348 -13.03737,-0.2798 -1.02908,-4.2138 2.58548,0.03 5.18578,0.1122 7.74836,-0.2608 2.7192,-0.093 5.44555,-0.015 8.16941,0.023 3.33435,0.054 6.6683,0.1213 10.00368,0.1322 2.56401,0.05 6.50581,-0.4988 5.92355,2.354 -6.26306,3.05245 -8.13651,4.07535 -14.5556,3.57205 -3.60159,-0.066 -7.20658,-0.065 -10.80531,-0.1879 2.8444,-2.16005 6.74086,-5.36105 10.33608,-4.26305 2.0903,0.6823 4.24369,0.785 6.34283,1.4207 2.21032,0.6894 4.44791,1.3472 6.8578,1.2881 1.88211,0.016 15.98925,-2.2682 -0.71388,1.62695 0.79522,-2.37265 0.40547,-3.31645 -2.85432,-3.39995 -2.73534,-0.033 -5.47039,-0.078 -8.2056,-0.1163 -2.95714,-0.039 -5.91422,-0.081 -8.87097,-0.1339 -3.52809,-0.055 -7.05649,-0.094 -10.58479,-0.141 -3.40318,-0.043 -6.80555,-0.117 -10.20907,-0.1482 -3.06584,-0.028 -6.13193,-0.07 -9.19697,-0.1208 -2.71039,-0.3379 -3.9862,-1.1529 -2.1039,-3.3034 5.30044,-2.4417 8.00478,-4.3632 13.65423,-3.9446 2.31992,0.1356 4.61509,0.3864 6.70431,1.2858 1.99991,0.9351 4.08023,1.6676 6.3582,2.0166 2.33712,0.6318 4.51478,1.3159 7.03714,1.0811 2.72673,0.041 5.45343,0.081 8.18035,0.1144 2.74139,0.041 5.48229,0.1042 8.22414,0.1217 6.26605,-0.4706 -3.91499,5.1505 -4.80036,1.1813 -2.52338,-0.367 -5.1567,-0.2996 -7.75461,-0.3353 -3.04053,-0.047 -6.08126,-0.085 -9.12159,-0.1391 -4.32965,-0.074 -8.65958,-0.2044 -12.99161,-0.1443 l 6.39052,-3.7277 z"
       inkscape:export-filename="D:\nobyself\art.gnome.org\snow\text27f783.png"
       inkscape:export-xdpi="90.000000"
       inkscape:export-ydpi="90.000000" />
    <path
       sodipodi:type="arc"
       style="fill:#e6fafa;fill-opacity:1;fill-rule:evenodd;stroke:none"
       id="path6280"
       sodipodi:cx="1110"
       sodipodi:cy="999"
       sodipodi:rx="30"
       sodipodi:ry="27"
       d="m 1140,999 a 30,27 0 1 1 -60,0 30,27 0 1 1 60,0 z"
       transform="translate(-1035.3214,-21.971877)"
       inkscape:export-filename="D:\nobyself\art.gnome.org\snow\text27f783.png"
       inkscape:export-xdpi="90.000000"
       inkscape:export-ydpi="90.000000" />
    <path
       sodipodi:type="arc"
       style="fill:#e6fafa;fill-opacity:1;fill-rule:evenodd;stroke:none"
       id="path6282"
       sodipodi:cx="1110"
       sodipodi:cy="999"
       sodipodi:rx="30"
       sodipodi:ry="27"
       d="m 1140,999 a 30,27 0 1 1 -60,0 30,27 0 1 1 60,0 z"
       transform="matrix(0.766667,0,0,0.814815,-779.32149,125.02812)"
       inkscape:export-filename="D:\nobyself\art.gnome.org\snow\text27f783.png"
       inkscape:export-xdpi="90.000000"
       inkscape:export-ydpi="90.000000" />
    <path
       style="fill:url(#radialGradient24742);fill-opacity:1;fill-rule:nonzero;stroke:none"
       id="path24740"
       d="m 65.95381,922.82583 c 2.63631,-0.1331 5.22367,-0.65601 7.82533,-1.06009 1.85162,-0.29168 3.70732,-0.55224 5.56065,-0.83086 1.64859,-0.31656 3.25831,-0.76194 4.97483,0.18496 3.90163,6.5267 -0.57985,12.24905 -3.19507,12.81767 -1.67244,0.19749 -3.33796,0.44901 -5.00447,0.69237 -1.65752,0.23072 -3.31313,0.47581 -4.96867,0.72171 -1.48344,0.77413 -3.05043,-0.63443 -4.65801,-1.60653 -1.51057,-0.37497 -3.01239,-1.77285 -4.51333,-3.54249 -1.45151,-1.21523 -2.81485,-1.35019 -4.1855,-1.26278 -2.87523,-0.48823 -6.23994,8.23407 -0.59715,-3.88764 -0.71038,3.44761 -0.23641,3.57361 1.23276,3.58262 1.85591,-0.23458 3.69886,-0.56728 5.55368,-0.81041 2.07493,-0.26848 4.13893,-0.62048 6.21072,-0.91292 2.13907,-0.30485 4.27995,-0.59515 6.41677,-0.91735 1.79969,-0.28423 3.60204,-0.5486 5.40541,-0.80481 1.6624,-0.24115 3.611646,-2.28167 5.275486,-2.51166 2.24482,-0.0223 4.692229,4.43524 5.053319,9.79833 -0.005,8.91617 -5.415775,10.85773 -8.267895,11.22472 -1.50481,0.22212 -3.10202,-0.85387 -4.67788,-2.19024 -1.39818,-0.47163 -2.72419,-0.92424 -4.14055,-1.87503 -4.21645,1.7167 -2.2795,0.84531 0.65792,-6.18282 2.18667,-0.19446 4.35487,-0.53947 6.52131,-0.89158 3.5945,0.46938 6.18884,-5.33807 1.35184,4.77544 -0.23377,-3.3885 -2.1117,-1.70793 -3.33581,-1.51489 -2.03173,0.27442 -4.0558,0.60668 -6.08287,0.91652 -1.63933,0.26996 -3.31248,0.29231 -4.87244,1.05 -1.46744,0.96946 -3.08278,1.05032 -4.66635,1.26395 -3.42394,-8.20271 4.90444,-7.51689 7.35267,-7.78965 1.88313,0.34108 3.72745,0.36607 5.54891,0.11468 4.1159,7.42712 -3.92925,11.15382 -6.2067,10.68658 -2.39416,-1.61471 -4.67366,-5.31245 -7.03352,-5.72902 -1.83047,0.0803 -3.70419,0.20423 -5.22753,1.6444 6.34665,-15.27321 1.93314,8.77243 -1.99673,5.50006 -1.93385,-2.82034 -3.28324,-2.8141 -4.91345,-1.63778 3.4878,-11.262 2.89594,-4.83417 2.29615,3.21243 -4.29784,11.07463 -5.23732,6.91336 0.4492,-3.57201 1.95901,0.91727 3.88249,1.26404 5.53786,0.14755 -6.55977,14.74909 -0.58557,-5.14223 1.09348,-8.68386 1.10691,-2.48226 2.65645,-2.51039 4.2883,-2.15754 2.06654,0.37555 2.89444,4.05839 3.57226,8.88728 -1.92784,10.5351 -3.31396,9.50096 -7.21747,6.86903 -1.6191,-2.23452 -3.30262,-3.31732 -4.55875,-3.35774 3.22327,-9.86427 2.68771,-3.76686 7.21445,-2.62452 1.66065,-0.0671 3.29204,-0.38302 4.93035,-0.63056 1.60026,-0.19398 3.15187,-0.74646 4.82629,-0.20113 1.79098,2.50013 2.81387,1.79776 4.06754,-0.38651 -6.82862,13.71133 0.29596,-3.52645 4.22938,-2.56701 1.64107,0.25031 2.77846,3.04433 3.90389,6.59038 -3.38933,10.03294 -1.7326,7.19625 -5.06026,-0.71344 -3.74888,-4.20492 6.08217,-15.26343 -3.17725,1.12802 0.41834,-9.55653 3.64109,-8.63968 7.16281,-8.96789 2.33397,-0.64664 4.92299,2.60608 7.32805,5.57787 -0.26033,7.0986 -1.51483,6.32304 -4.65576,0.62099 -1.39585,-2.94785 -2.86631,-4.90401 -4.42957,-6.43426 -1.94837,-1.34691 -3.74203,-0.38533 -5.18685,1.68295 -2.63122,1.12286 -7.05296,8.65331 -1.27093,-3.54323 -0.18132,4.76976 1.88194,3.08194 3.27266,2.89424 2.38563,-0.58512 4.65082,-1.0874 7.22692,0.71852 1.72009,1.92874 3.31957,1.95557 4.97506,4.09776 1.39841,2.71792 1.00533,4.10566 0.99462,7.31068 -0.52988,-0.26017 -3.5644,11.38363 -2.03177,1.77708 -0.47614,-3.94924 -1.62879,-6.45018 -2.94458,-8.80065 -3.41035,4.54286 0.30703,-18.78592 0.82821,1.51805 1.77477,11.75833 -2.40166,16.31509 -6.34681,9.57361 -2.10538,-3.89185 -4.10003,-7.10369 -6.11978,-5.46051 -1.57337,3.38816 3.39893,-7.44228 2.56609,-5.5342 -10.16528,23.28932 -0.24337,-5.76929 -2.91202,6.7299 -3.89712,11.24472 -4.58529,3.91859 -9.44848,-2.2426 -3.82366,1.66266 1.3017,-13.74568 0.83443,-1.74877 -1.5664,8.16352 -3.56144,8.98689 -6.62945,9.80821 -1.67217,0.0147 -3.41127,-1.36623 -5.13574,-3.00335 -6.0392,2.38373 5.86051,-15.30278 -3.77023,4.97937 -2.06652,0.49144 -2.59061,-5.61179 -3.19566,-10.10168 -1.91492,-10.00709 -0.39675,-16.52287 2.93482,-15.71868 2.6511,3.63968 7.50439,6.67046 10.18563,7.89101 9.87303,11.60214 -1.80304,8.99464 -6.13142,5.80787 -6.57825,0.78903 -11.133863,-10.99401 -5.214113,-11.64052 -1.799335,1.20345 8.197963,-0.37181 10.091073,-0.63702 2.10375,-0.44359 4.22787,-0.62911 6.40742,-0.42031 3.2744,0.71024 6.05598,-3.98687 0.46136,7.77178 -0.31502,0.66212 -5.25588,-3.83004 -5.80274,-4.15465 -20.595603,-7.3151 -13.245497,4.03492 -3.01559,3.64858 2.38812,-0.38432 4.77517,-0.77749 7.17218,-1.09384 3.3245,-0.39648 6.63133,-0.92996 9.94321,-1.42391 3.44338,1.7944 6.69773,4.30508 10.11143,4.10288 5.86868,2.46732 2.43145,8.46227 -0.27433,14.19635 4.11035,-9.37181 1.20131,-4.36211 5.09361,-4.72946 0.11104,-0.0171 0.22209,-0.0343 0.33313,-0.0514 l -2.78714,8.06933 c -0.11202,0.0152 -0.22403,0.0304 -0.33608,0.0456 -4.18846,0.0701 -3.89055,-6.99173 0.32099,-11.84793 -3.4166,7.96662 -0.62067,4.3916 -5.1007,2.21261 -3.4049,0.0151 -6.70875,-2.79827 -10.10398,-4.05588 -3.32221,0.47076 -6.64965,0.90253 -9.95911,1.46998 -2.38203,0.37849 -4.77388,0.68226 -7.1568,1.05415 -2.28859,0.30017 -7.87097,3.35715 -8.39096,-4.68128 3.98532,-15.5801 8.59574,-20.4571 16.84531,-14.15937 10.5035,5.82652 5.20872,11.9858 -0.1202,11.46574 -2.17714,-0.11912 -4.28329,0.31567 -6.41202,0.60414 -1.89737,0.28631 -3.79599,0.56332 -5.69853,0.80981 -3.39409,0.49344 2.43384,-12.54052 6.3746,-3.89275 8.74024,6.63692 5.77528,13.43446 0.48452,9.31384 -13.371377,-9.80887 -8.409187,-19.98338 -6.86366,-6.36232 0.48404,3.70443 0.78854,9.50401 2.44881,8.06744 -6.5956,14.82335 0.11548,-6.98211 4.04934,-4.20695 1.68431,1.56892 3.38597,2.84464 4.98912,2.55203 4.29485,-1.44264 1.51968,0.42592 0.27177,4.17082 0.30996,-7.24298 2.2198,-15.18879 5.70032,-11.64481 4.24092,5.62671 7.6802,8.36572 2.78074,15.20051 1.07538,-4.64462 2.41373,-8.25469 4.4069,-10.99481 0.45438,-0.62466 1.68231,-2.95015 1.29768,-2.1023 -0.93102,2.05218 -3.76097,8.10302 -2.80434,6.12455 1.28355,-2.65454 2.32125,-6.09653 3.83395,-8.01229 2.24844,-0.61296 4.28787,2.45714 6.46957,6.62804 8.38478,13.4345 -0.44497,16.5999 -0.10869,3.7908 -0.54831,-9.10752 1.826,-17.43815 5.6137,-15.21757 1.50497,2.85305 2.77156,5.79808 3.46493,10.29197 -0.33615,5.78144 -2.00323,14.95197 -4.82572,10.97825 -0.40663,-3.82881 0.35211,-4.27181 -0.76882,-6.70961 -1.56515,-1.63119 -3.1629,-1.78663 -4.76544,-3.71314 -2.51383,-1.61797 -4.75078,-0.86603 -7.09488,-0.43299 -1.69233,0.23424 -4.2122,1.18312 -4.2626,-5.59504 2.67374,-5.74017 4.46986,-7.62846 7.66087,-10.15004 1.60049,-1.73875 5.8239,-2.50575 7.86551,-0.71521 1.61706,1.56921 2.701965,4.06447 4.147175,7.01991 3.983465,7.33083 0.676285,11.68873 -3.354865,13.68435 -2.38727,-2.99872 -4.84219,-5.77402 -7.1457,-4.98917 -3.89357,0.19103 -5.80841,2.06495 -1.49925,-7.01783 -5.77453,14.07399 -0.41974,-7.19522 3.42144,-0.37497 3.58201,8.71759 2.42941,12.18089 -1.26367,14.8968 -1.05748,-3.32389 -2.01239,-5.5298 -3.5336,-5.66271 -10.89724,-2.30714 7.4879,-12.09784 -3.97564,3.16226 -1.38444,1.83654 -2.55282,1.95757 -4.33976,-0.22432 -1.61524,-0.16223 -3.18417,0.0746 -4.75285,0.35421 -1.64999,0.24373 -3.28314,0.66845 -4.98101,0.50706 -4.40245,-1.75546 -7.37889,-5.6482 -1.79098,-13.91879 1.59306,0.56017 3.24258,2.65725 4.89005,4.31487 4.98396,3.17342 2.44385,2.81 0.8517,7.07942 -0.58142,-4.4452 -1.09358,-7.13631 -3.00074,-7.28627 -1.58794,-0.11244 -2.95517,0.37444 -4.07463,2.67343 6.29629,-14.32701 0.79662,5.10947 -1.07695,8.74753 -1.82772,0.42102 -3.71943,-0.0217 -5.64711,-0.53223 4.57692,-12.29455 1.13188,0.6528 -1.21138,1.53279 -0.959298,-7.93947 -5.5563,-29.53476 9.05618,-15.25959 5.68902,3.16534 -4.6988,9.16416 -1.60354,1.19592 1.03853,-2.67351 2.17815,-5.07751 3.26723,-7.61627 1.75134,-0.74694 3.59391,-1.06187 5.46026,-1.06116 2.3728,0.8528 4.65746,4.6364 7.04594,5.87655 4.87265,0.29748 3.25744,-1.01368 0.57997,5.2058 -1.82297,0.21431 -3.6844,-0.0501 -5.54127,-0.16545 -4.77784,0.23563 -7.94722,0.95937 -1.78972,-8.28114 1.56896,-0.24106 3.16136,-0.37979 4.60472,-1.42163 1.61554,-0.50212 3.283,-0.66285 4.93763,-0.90468 2.0277,-0.28002 4.05876,-0.53412 6.07506,-0.90058 1.56149,-0.19928 3.78873,-1.75152 4.22836,4.0037 -2.93398,6.81458 -3.78117,9.07186 -7.79544,8.81536 -2.19234,0.28727 -4.36816,0.70835 -6.5744,0.8828 1.11791,-4.63749 2.5822,-11.47258 5.05684,-9.70196 1.45096,1.1171 2.77926,1.07114 4.22264,2.09431 1.52538,1.11723 3.05845,2.16831 4.49673,1.77006 4.971192,0.13291 12.06954,-6.12876 0.0203,3.32669 -0.17796,-4.82287 -0.67495,-6.65905 -2.6658,-6.44634 -1.66014,0.25333 -3.32369,0.48094 -4.9853,0.7231 -1.79569,0.26717 -3.59246,0.52639 -5.39182,0.76541 -2.14495,0.30041 -4.28561,0.63299 -6.42828,0.95069 -2.06629,0.30927 -4.14043,0.55852 -6.20351,0.89244 -1.85839,0.30085 -3.72087,0.57327 -5.58496,0.82953 -1.72976,-0.35835 -6.389643,-2.69666 -4.987764,-6.9876 2.52234,-5.48477 6.423604,-8.98373 9.949794,-8.80653 1.43796,3.2e-4 2.89292,0.23323 4.40342,1.78318 1.46651,1.63157 2.92536,2.8498 4.39718,3.28055 1.58593,0.98762 3.09012,2.09809 4.54755,1.33641 1.65723,-0.23588 3.31428,-0.47292 4.96954,-0.72389 1.66603,-0.23799 5.0451,-4.55535 6.70498,-4.83955 3.65178,-1.66749 -2.64185,14.849 -4.27698,7.03884 -1.62492,-0.43792 -3.19575,0.003 -4.77381,0.23394 -1.84842,0.25972 -3.69444,0.53756 -5.54455,0.78418 -2.63392,0.35679 -5.28378,0.60014 -7.88199,1.22418 l 2.82367,-8.17551 -4e-5,-2e-5 z"
       inkscape:export-filename="D:\nobyself\art.gnome.org\snow\text27f783.png"
       inkscape:export-xdpi="90.000000"
       inkscape:export-ydpi="90.000000"
       sodipodi:nodetypes="ccccccccccccsscsccccccccccccccccccccccccccccccccccccccccccccccccccscccccccccccccscccccccccccccccccccccccccccccsssccccccccccccccccccccccccccccccccscccccccccccccccccscsscccccccccccccc" />
    <path
       sodipodi:type="arc"
       style="fill:#e6fafa;fill-opacity:1;fill-rule:evenodd;stroke:none"
       id="path6284"
       sodipodi:cx="1110"
       sodipodi:cy="999"
       sodipodi:rx="30"
       sodipodi:ry="27"
       d="m 1140,999 a 30,27 0 1 1 -60,0 30,27 0 1 1 60,0 z"
       transform="matrix(0.466667,0,0,0.518519,-448.32189,394.02792)"
       inkscape:export-filename="D:\nobyself\art.gnome.org\snow\text27f783.png"
       inkscape:export-xdpi="90.000000"
       inkscape:export-ydpi="90.000000" />
    <path
       style="fill:url(#radialGradient26198);fill-opacity:1;fill-rule:nonzero;stroke:none"
       id="path26196"
       d="m 67.280473,900.9766 c 1.57111,-0.087 0.837079,0.42488 2.387539,0.16087 1.10348,-0.19057 3.205113,0.20817 4.309613,0.0261 0.98247,-0.20683 4.075493,-0.49782 5.098453,0.12085 2.32518,4.2643 -2.194778,8.14531 -3.753318,8.51682 -0.99669,0.12904 -1.98925,0.29337 -2.98241,0.45237 -0.9878,0.15075 -1.97446,0.31088 -2.96108,0.47154 -0.88406,0.50579 -1.8179,-0.41451 -2.77594,-1.04965 -0.90022,-0.24499 -1.79523,-1.1583 -2.68972,-2.31453 -0.86502,-0.79398 -1.67751,-0.88215 -2.49434,-0.82505 -1.71349,-0.31899 -3.71869,5.37983 -0.35587,-2.54003 -0.42335,2.25253 -0.14089,2.33486 0.73466,2.34075 1.10603,-0.15327 2.20433,-0.37065 3.30972,-0.52949 1.23655,-0.17542 2.46658,-0.4054 3.70126,-0.59647 1.27479,-0.19918 2.55064,-0.38885 3.82408,-0.59936 1.07252,-0.18571 2.14663,-0.35844 3.22136,-0.52584 0.9907,-0.15755 2.480252,-2.04036 3.471822,-2.19063 1.3378,-0.0146 3.446191,3.01781 3.661391,6.52185 -0.003,5.82548 -4.205303,7.52364 -5.905033,7.76342 -0.89678,0.14513 -1.84864,-0.55789 -2.78777,-1.43101 -0.83325,-0.30815 -1.62348,-0.60387 -2.46756,-1.22509 -2.51279,1.12164 -1.35846,0.5523 0.39209,-4.03961 1.30314,-0.12705 2.59527,-0.35247 3.88637,-0.58252 2.14214,0.30667 3.68824,-3.4877 0.80563,3.12008 -0.13932,-2.21391 -1.25847,-1.11589 -1.98798,-0.98977 -1.21081,0.1793 -2.41705,0.39638 -3.62509,0.59882 -0.97694,0.17639 -1.97406,0.19098 -2.90371,0.68604 -0.87453,0.6334 -1.83719,0.68623 -2.78092,0.82581 -2.04049,-5.35933 2.92281,-4.91125 4.38183,-5.08945 1.12224,0.22284 2.22136,0.23917 3.30686,0.0749 2.45287,4.8526 -2.34163,7.28748 -3.69887,6.9822 -1.42681,-1.05499 -2.78527,-3.47095 -4.19162,-3.74312 -1.09087,0.0524 -2.20752,0.13344 -3.11535,1.07438 3.78228,-9.97892 1.15205,5.73157 -1.18995,3.59353 -1.15248,-1.8427 -1.95665,-1.83862 -2.92818,-1.07005 2.07856,-7.35817 1.72584,-3.15847 1.3684,2.09887 -2.5613,7.23574 -3.12118,4.51693 0.2677,-2.33382 1.16747,0.59932 2.31376,0.82588 3.30028,0.0964 -3.90929,9.63649 -0.34897,-3.35974 0.65166,-5.67371 0.65967,-1.6218 1.58311,-1.64018 2.55561,-1.40965 1.23156,0.24537 1.72494,2.65161 2.12889,5.80661 -1.14889,6.88324 -1.97495,6.20756 -4.30125,4.48796 -0.9649,-1.45995 -1.96819,-2.1674 -2.71679,-2.19381 1.92092,-6.44494 1.60174,-2.46112 4.29945,-1.71477 0.98967,-0.0438 1.96189,-0.25024 2.93824,-0.41197 0.95367,-0.12675 1.87836,-0.48771 2.87623,-0.13142 1.06733,1.63349 1.67692,1.17459 2.42405,-0.25253 -4.06952,8.95846 0.17637,-2.30405 2.52049,-1.67718 0.978,0.16354 1.65582,1.98904 2.32652,4.3059 -2.01986,6.55514 -1.03254,4.70174 -3.01565,-0.46614 -2.23415,-2.74734 3.62466,-9.97254 -1.89348,0.737 0.2493,-6.24386 2.1699,-5.64483 4.26866,-5.85927 1.39094,-0.42249 2.93386,1.70272 4.36716,3.64437 -0.15515,4.63795 -0.90277,4.13122 -2.77461,0.40573 -0.83185,-1.92601 -1.70817,-3.2041 -2.6398,-4.2039 -1.16112,-0.88002 -2.23005,-0.25176 -3.09109,1.09957 -1.56808,0.73364 -4.20321,5.65375 -0.75742,-2.315 -0.10805,3.11637 1.12155,2.01361 1.95035,1.89097 1.42171,-0.38228 2.77165,-0.71045 4.30688,0.46946 1.02508,1.26017 1.97829,1.2777 2.96488,2.67733 0.83338,1.77578 0.59912,2.68247 0.59275,4.7765 -0.31579,-0.16997 -2.12421,7.43764 -1.21083,1.16109 -0.28377,-2.58029 -0.97068,-4.2143 -1.75483,-5.75001 -2.03239,2.96813 0.18298,-12.27401 0.49358,0.99183 1.05767,7.68245 -1.43127,10.65966 -3.78238,6.25503 -1.25471,-2.54278 -2.44342,-4.64128 -3.64709,-3.56769 -0.93764,2.2137 2.0256,-4.86249 1.52926,-3.61582 -6.05798,15.21634 -0.14503,-3.76944 -1.73542,4.39706 -2.32248,7.34686 -2.7326,2.56025 -5.63082,-1.46523 -2.27869,1.08631 0.77576,-8.98091 0.49728,-1.14259 -0.93349,5.33373 -2.12243,5.87169 -3.95081,6.40831 -0.99653,0.01 -2.03294,-0.89264 -3.06064,-1.96228 -3.59905,1.55745 3.49257,-9.99825 -2.24687,3.25334 -1.23153,0.32108 -1.54386,-3.66653 -1.90444,-6.60005 -1.1412,-6.53826 1.1199,-10.0519 3.10535,-9.52648 1.57992,2.37804 3.11588,3.61472 4.71377,4.41217 5.88383,7.5804 -1.07452,5.87676 -3.65402,3.79464 -3.9203,0.51553 -4.00727,-7.09012 -0.4794,-7.51252 1.13176,-0.14311 2.25762,-0.33587 3.38583,-0.50915 1.25372,-0.28982 2.51959,-0.41104 3.81849,-0.27462 1.95137,0.46405 3.60906,-2.60486 0.27495,5.07779 -0.18774,0.43261 -3.13224,-2.5024 -3.45814,-2.7145 0.19979,-6.98858 -9.62197,3.67844 -8.68414,1.48209 2.73294,-6.40044 1.076601,-3.74708 0.527031,-1.48946 -0.219798,1.71399 5.046259,2.62845 6.359969,2.39123 1.42319,-0.25111 2.84576,-0.50799 4.27426,-0.71468 1.98122,-0.25905 3.95193,-0.6076 5.92565,-0.93033 2.05208,1.1724 3.9915,2.81277 6.02589,2.68067 3.49745,1.61205 1.44903,5.52892 -0.16348,9.27534 2.44956,-6.12317 0.71592,-2.85002 3.03553,-3.09003 0.0662,-0.0112 0.13236,-0.0224 0.19854,-0.0336 l -1.661,5.2722 c -0.0668,0.01 -0.13351,0.0199 -0.20029,0.0298 -2.49611,0.0458 -2.31856,-4.56813 0.1913,-7.74098 -2.03612,5.20507 -0.36989,2.86929 -3.03977,1.44564 -2.02915,0.01 -3.99807,-1.82829 -6.02145,-2.64997 -1.97987,0.30758 -3.96287,0.58969 -5.93514,0.96043 -1.41956,0.24729 -2.84498,0.44576 -4.26509,0.68874 -1.36388,0.19612 -4.69069,-0.22477 -5.00058,-5.47678 2.37505,-10.17944 5.12262,-10.94767 10.03896,-6.83298 6.25955,3.80683 3.10413,7.83107 -0.0716,7.49128 -1.29746,-0.0778 -2.55263,0.20624 -3.82124,0.39472 -1.13074,0.18707 -2.26222,0.36805 -3.39604,0.52909 -2.0227,0.3224 1.45045,-8.19348 3.79894,-2.54336 5.20874,4.33631 3.44178,8.77755 0.28875,6.0853 -1.60339,-0.81568 -4.83389,-3.80257 -6.42532,-5.85772 -2.61618,0.28497 1.405177,-7.86576 1.339187,0.27834 0.28848,2.42034 1.465673,7.63205 2.455113,6.69344 -3.93064,9.68501 0.0688,-4.56184 2.4132,-2.74866 1.00377,1.02508 2.01787,1.85858 2.97326,1.6674 2.55951,-0.94256 0.90566,0.27829 0.16196,2.72505 0.18472,-4.73228 1.32289,-9.92377 3.3971,-7.60827 2.52738,3.67627 4.57701,5.46584 1.65719,9.93144 0.64087,-3.03462 1.43846,-5.3933 2.62629,-7.18359 0.27078,-0.40814 1.00257,-1.92752 0.77334,-1.37356 -0.55483,1.3408 -2.24134,5.2942 -1.67123,4.00154 0.76492,-1.73438 1.38335,-3.98324 2.28484,-5.23492 1.33995,-0.40049 2.55535,1.6054 3.85553,4.33051 4.99691,8.77758 -0.26519,10.84574 -0.0648,2.47676 -0.32676,-5.95051 1.941695,-12.24691 4.198965,-10.79607 0.89689,1.86407 0.798235,4.64174 1.211445,7.57787 -0.20033,3.77737 -1.19382,9.76905 -2.87589,7.17276 -0.24232,-2.50159 0.20984,-2.79102 -0.45818,-4.3838 -0.93274,-1.06576 -1.88493,-1.16731 -2.83995,-2.42602 -1.49812,-1.05712 -2.83123,-0.56583 -4.22819,-0.2829 -1.00854,0.15304 -2.51027,0.77301 -2.5403,-3.65558 1.59342,-3.75041 2.66381,-4.98414 4.56549,-6.63165 0.95382,-1.13603 3.566561,-2.64004 4.783261,-1.47016 0.96368,1.02526 1.638717,4.37255 2.499987,6.30352 2.37395,4.78968 0.278742,6.92285 -2.123628,8.22672 -1.42269,-1.95925 -2.88569,-3.77252 -4.25847,-3.25973 -2.32037,0.1248 -3.46151,1.34916 -0.89348,-4.58519 -3.44133,9.19542 -0.25014,-4.70108 2.03901,-0.24499 2.1347,5.69575 1.4478,7.95853 -0.75309,9.733 -0.63019,-2.1717 -1.19928,-3.61295 -2.10585,-3.69979 -6.4942,-1.5074 4.46242,-7.90427 -2.36928,2.0661 -0.82504,1.19993 -1.52134,1.27899 -2.58627,-0.14657 -0.96261,-0.10599 -1.8976,0.0487 -2.83246,0.23143 -0.98331,0.15924 -1.95658,0.43673 -2.96843,0.3313 -2.62364,-1.14696 -4.39745,-3.69032 -1.06733,-9.09401 0.94938,0.36599 1.93241,1.73615 2.91421,2.81917 2.97019,2.07339 1.45642,1.83595 0.50758,4.62542 -0.3465,-2.90432 -0.65172,-4.66258 -1.78829,-4.76056 -0.94633,-0.0735 -1.76114,0.24463 -2.42827,1.74671 3.75227,-9.36072 0.47474,3.33833 -0.6418,5.71531 -1.08925,0.27507 -2.21661,-0.0142 -3.3654,-0.34775 2.72761,-8.03279 0.67454,0.42652 -0.72192,1.00147 0.0904,-5.98467 0.32048,-8.19628 2.33086,-11.48147 1.01268,-0.66654 1.92241,-0.16572 3.06616,1.51144 3.39037,2.0681 -2.80024,5.98751 -0.95563,0.78136 0.61892,-1.74676 1.29806,-3.31745 1.94711,-4.97617 1.04371,-0.48803 2.14178,-0.69379 3.25404,-0.69333 1.41406,0.55718 2.77561,3.02925 4.19902,3.83952 2.90385,0.19436 1.94127,-0.6623 0.34564,3.40127 -1.08641,0.14002 -2.19573,-0.0328 -3.30232,-0.1081 -2.84735,0.15395 -4.73615,0.62682 -1.06658,-5.41058 0.93501,-0.1575 1.884,-0.24814 2.74418,-0.92884 0.96277,-0.32807 1.95649,-0.43308 2.94257,-0.59109 1.20841,-0.18294 2.41882,-0.34897 3.62043,-0.58839 0.93057,-0.13021 4.197545,-2.65301 4.459545,1.10722 -1.7485,4.45239 -4.193045,7.43584 -6.585345,7.26826 -1.30652,0.18768 -2.60321,0.46281 -3.91801,0.57678 0.66622,-3.02996 1.53887,-7.49575 3.01363,-6.33889 0.86469,0.72987 1.65628,0.69984 2.51647,1.36834 0.90905,0.72996 1.82269,1.41669 2.67982,1.15649 0.67976,-0.12171 5.37691,-4.17019 0.0121,2.17354 -0.10606,-3.15108 -0.40223,-4.35077 -1.58868,-4.2118 -0.98936,0.16552 -1.98075,0.31424 -2.97099,0.47245 -1.07015,0.17456 -2.14092,0.34392 -3.21325,0.50009 -1.27829,0.19628 -2.554,0.41357 -3.83093,0.62114 -1.23141,0.20207 -2.46748,0.36492 -3.69699,0.58309 -1.10749,0.19657 -2.21744,0.37455 -3.32835,0.54198 -1.03085,-0.23413 -3.779632,-1.62969 -3.457932,-4.57403 1.50318,-3.58354 3.175642,-6.14552 5.277072,-6.02975 0.85696,2.2e-4 3.146505,-0.84335 4.046695,0.16934 2.154198,-0.35649 1.458875,3.14218 2.335995,3.42361 0.94514,0.64527 1.84156,1.37081 2.71012,0.87316 0.98762,-0.15412 1.97515,-0.30899 2.9616,-0.47296 0.99286,-0.1555 1.98934,-0.28105 2.97856,-0.46675 2.17627,-1.08947 -0.55715,7.00655 -1.5316,1.90368 -0.96837,-0.28612 -1.9045,0.002 -2.84496,0.15285 -1.10155,0.16968 -2.20169,0.35122 -3.30426,0.51235 -1.56969,0.23312 -3.14887,0.39211 -4.69728,0.79983 l 1.68277,-5.34156 0.995693,-1.56472 z"
       inkscape:export-filename="D:\nobyself\art.gnome.org\snow\text27f783.png"
       inkscape:export-xdpi="90.000000"
       inkscape:export-ydpi="90.000000"
       sodipodi:nodetypes="cscccsccccccsscsccccccccccccccccccccccccccccccccccccccccccccccccccscccccccccccccscscsccccccccccccccccccccccccccccsssccccccccccccccccccccccccccsccccccscccccccccccccccccscssccccccsccssccc" />
    <path
       sodipodi:type="arc"
       style="fill:#000000;fill-opacity:1;fill-rule:evenodd;stroke:none"
       id="path6286"
       sodipodi:cx="840.33331"
       sodipodi:cy="381.33334"
       sodipodi:rx="3.6666667"
       sodipodi:ry="1.3333334"
       d="m 843.99998,381.33334 a 3.6666667,1.3333334 0 1 1 -7.33333,0 3.6666667,1.3333334 0 1 1 7.33333,0 z"
       transform="matrix(0.636364,0,0,0.875,-470.41239,571.52812)"
       inkscape:export-filename="D:\nobyself\art.gnome.org\snow\text27f783.png"
       inkscape:export-xdpi="90.000000"
       inkscape:export-ydpi="90.000000" />
    <path
       sodipodi:type="arc"
       style="fill:#000000;fill-opacity:1;fill-rule:evenodd;stroke:none"
       id="path7742"
       sodipodi:cx="840.33331"
       sodipodi:cy="381.33334"
       sodipodi:rx="3.6666667"
       sodipodi:ry="1.3333334"
       d="m 843.99998,381.33334 a 3.6666667,1.3333334 0 1 1 -7.33333,0 3.6666667,1.3333334 0 1 1 7.33333,0 z"
       transform="matrix(0.636364,0,0,0.875,-462.07929,571.69478)"
       inkscape:export-filename="D:\nobyself\art.gnome.org\snow\text27f783.png"
       inkscape:export-xdpi="90.000000"
       inkscape:export-ydpi="90.000000" />
    <path
       sodipodi:type="arc"
       style="fill:#000000;fill-opacity:1;fill-rule:evenodd;stroke:none"
       id="path7744"
       sodipodi:cx="840.33331"
       sodipodi:cy="381.33334"
       sodipodi:rx="3.6666667"
       sodipodi:ry="1.3333334"
       d="m 843.99998,381.33334 a 3.6666667,1.3333334 0 1 1 -7.33333,0 3.6666667,1.3333334 0 1 1 7.33333,0 z"
       transform="matrix(0.2,0,0,0.575,-105.38849,693.96142)"
       inkscape:export-filename="D:\nobyself\art.gnome.org\snow\text27f783.png"
       inkscape:export-xdpi="90.000000"
       inkscape:export-ydpi="90.000000" />
    <path
       sodipodi:type="arc"
       style="fill:#000000;fill-opacity:1;fill-rule:evenodd;stroke:none"
       id="path7746"
       sodipodi:cx="840.33331"
       sodipodi:cy="381.33334"
       sodipodi:rx="3.6666667"
       sodipodi:ry="1.3333334"
       d="m 843.99998,381.33334 a 3.6666667,1.3333334 0 1 1 -7.33333,0 3.6666667,1.3333334 0 1 1 7.33333,0 z"
       transform="matrix(0.2,0,0,0.575,-103.58819,695.36142)"
       inkscape:export-filename="D:\nobyself\art.gnome.org\snow\text27f783.png"
       inkscape:export-xdpi="90.000000"
       inkscape:export-ydpi="90.000000" />
    <path
       sodipodi:type="arc"
       style="fill:#000000;fill-opacity:1;fill-rule:evenodd;stroke:none"
       id="path7748"
       sodipodi:cx="840.33331"
       sodipodi:cy="381.33334"
       sodipodi:rx="3.6666667"
       sodipodi:ry="1.3333334"
       d="m 843.99998,381.33334 a 3.6666667,1.3333334 0 1 1 -7.33333,0 3.6666667,1.3333334 0 1 1 7.33333,0 z"
       transform="matrix(0.2,0,0,0.575,-101.58818,696.36142)"
       inkscape:export-filename="D:\nobyself\art.gnome.org\snow\text27f783.png"
       inkscape:export-xdpi="90.000000"
       inkscape:export-ydpi="90.000000" />
    <path
       sodipodi:type="arc"
       style="fill:#000000;fill-opacity:1;fill-rule:evenodd;stroke:none"
       id="path7750"
       sodipodi:cx="840.33331"
       sodipodi:cy="381.33334"
       sodipodi:rx="3.6666667"
       sodipodi:ry="1.3333334"
       d="m 843.99998,381.33334 a 3.6666667,1.3333334 0 1 1 -7.33333,0 3.6666667,1.3333334 0 1 1 7.33333,0 z"
       transform="matrix(0.2,0,0,0.575,-99.388185,696.36142)"
       inkscape:export-filename="D:\nobyself\art.gnome.org\snow\text27f783.png"
       inkscape:export-xdpi="90.000000"
       inkscape:export-ydpi="90.000000" />
    <path
       sodipodi:type="arc"
       style="fill:#000000;fill-opacity:1;fill-rule:evenodd;stroke:none"
       id="path7752"
       sodipodi:cx="840.33331"
       sodipodi:cy="381.33334"
       sodipodi:rx="3.6666667"
       sodipodi:ry="1.3333334"
       d="m 843.99998,381.33334 a 3.6666667,1.3333334 0 1 1 -7.33333,0 3.6666667,1.3333334 0 1 1 7.33333,0 z"
       transform="matrix(0.2,0,0,0.575,-97.388185,696.36142)"
       inkscape:export-filename="D:\nobyself\art.gnome.org\snow\text27f783.png"
       inkscape:export-xdpi="90.000000"
       inkscape:export-ydpi="90.000000" />
    <path
       sodipodi:type="arc"
       style="fill:#000000;fill-opacity:1;fill-rule:evenodd;stroke:none"
       id="path7754"
       sodipodi:cx="840.33331"
       sodipodi:cy="381.33334"
       sodipodi:rx="3.6666667"
       sodipodi:ry="1.3333334"
       d="m 843.99998,381.33334 a 3.6666667,1.3333334 0 1 1 -7.33333,0 3.6666667,1.3333334 0 1 1 7.33333,0 z"
       transform="matrix(0.198258,-0.02633822,0.07572238,0.569992,-123.09539,719.48552)"
       inkscape:export-filename="D:\nobyself\art.gnome.org\snow\text27f783.png"
       inkscape:export-xdpi="90.000000"
       inkscape:export-ydpi="90.000000" />
    <path
       sodipodi:type="arc"
       style="fill:#000000;fill-opacity:1;fill-rule:evenodd;stroke:none"
       id="path7756"
       sodipodi:cx="840.33331"
       sodipodi:cy="381.33334"
       sodipodi:rx="3.6666667"
       sodipodi:ry="1.3333334"
       d="m 843.99998,381.33334 a 3.6666667,1.3333334 0 1 1 -7.33333,0 3.6666667,1.3333334 0 1 1 7.33333,0 z"
       transform="matrix(0.2,0,0,0.575,-93.988185,694.16142)"
       inkscape:export-filename="D:\nobyself\art.gnome.org\snow\text27f783.png"
       inkscape:export-xdpi="90.000000"
       inkscape:export-ydpi="90.000000" />
    <path
       style="fill:#dc0000;fill-opacity:1;fill-rule:evenodd;stroke:#000000;stroke-width:0.40000001;stroke-linecap:butt;stroke-linejoin:miter;stroke-miterlimit:4;stroke-opacity:1;stroke-dasharray:none"
       d="m 67.87851,908.42812 0.4,5.4 1.6,-5.8 -2,0.4 z"
       id="path7760"
       inkscape:export-filename="D:\nobyself\art.gnome.org\snow\text27f783.png"
       inkscape:export-xdpi="90.000000"
       inkscape:export-ydpi="90.000000" />
    <path
       style="fill:none;stroke:#643200;stroke-width:1px;stroke-linecap:butt;stroke-linejoin:miter;stroke-opacity:1"
       d="m 88.47851,963.62812 15.4,-52.2"
       id="path8488"
       inkscape:export-filename="D:\nobyself\art.gnome.org\snow\text27f783.png"
       inkscape:export-xdpi="90.000000"
       inkscape:export-ydpi="90.000000" />
    <path
       style="fill:#643200;fill-opacity:1;fill-rule:nonzero;stroke:none"
       id="path9216"
       d="m 99.74965,910.40437 c -0.19373,1.83662 -0.238,3.6839 -0.2407,5.53743 -0.0285,1.8328 -7.8e-4,3.64534 0.2724,5.44772 0.19246,1.13154 0.32187,2.24456 0.34978,3.4017 0.005,0.9814 -0.002,1.96277 -0.003,2.94416 l -2.49825,1.6135 c -3.6e-4,-0.97881 -0.003,-1.9576 -0.002,-2.93643 -0.0211,-1.13957 -0.1402,-2.23411 -0.31543,-3.35098 -0.26767,-1.83006 -0.32903,-3.67282 -0.26301,-5.53283 0.0187,-1.82863 0.0384,-3.66603 0.15859,-5.48221 l 2.54228,-1.64206 z"
       inkscape:export-filename="D:\nobyself\art.gnome.org\snow\text27f783.png"
       inkscape:export-xdpi="90.000000"
       inkscape:export-ydpi="90.000000" />
    <path
       style="fill:#643200;fill-opacity:1;fill-rule:nonzero;stroke:none"
       id="path9944"
       d="m 96.4961,917.35586 c -0.0691,1.83662 -0.0849,3.6839 -0.0858,5.53743 -0.0101,1.8328 -2.8e-4,3.64534 0.0971,5.44772 0.0686,1.13154 0.11476,2.24456 0.12472,3.4017 0.002,0.9814 -8.2e-4,1.96277 -0.001,2.94416 l -0.89079,1.6135 c -1.3e-4,-0.97881 -0.001,-1.9576 -8.1e-4,-2.93643 -0.008,-1.13957 -0.05,-2.23411 -0.11247,-3.35098 -0.0954,-1.83006 -0.11732,-3.67282 -0.0938,-5.53283 0.007,-1.82863 0.0137,-3.66603 0.0566,-5.48221 l 0.90649,-1.64206 z"
       inkscape:export-filename="D:\nobyself\art.gnome.org\snow\text27f783.png"
       inkscape:export-xdpi="90.000000"
       inkscape:export-ydpi="90.000000" />
    <path
       style="fill:#643200;fill-opacity:1;fill-rule:nonzero;stroke:none"
       id="path9946"
       d="m 101.2961,907.75586 c -0.0691,1.44883 -0.0849,2.90607 -0.0858,4.36824 -0.0102,1.44582 -2.8e-4,2.87565 0.0971,4.29747 0.0686,0.89263 0.11476,1.77064 0.12472,2.68346 0.002,0.77418 -8.2e-4,1.54834 -10e-4,2.32252 l -0.89079,1.27282 c -1.3e-4,-0.77214 -10e-4,-1.54427 -8.1e-4,-2.31642 -0.008,-0.89896 -0.05,-1.7624 -0.11247,-2.64345 -0.0954,-1.44365 -0.11732,-2.89733 -0.0938,-4.36461 0.007,-1.44253 0.0137,-2.89197 0.0566,-4.32468 l 0.90649,-1.29535 z"
       inkscape:export-filename="D:\nobyself\art.gnome.org\snow\text27f783.png"
       inkscape:export-xdpi="90.000000"
       inkscape:export-ydpi="90.000000" />
    <path
       style="fill:#643200;fill-opacity:1;fill-rule:nonzero;stroke:none"
       id="path9948"
       d="m 109.20899,914.1267 c -1.06237,1.49977 -2.08597,3.03761 -3.10056,4.58879 -1.01096,1.5288 -1.99407,3.05159 -2.89834,4.61375 -0.56146,0.98482 -1.1316,1.94183 -1.75617,2.91599 -0.53542,0.82248 -1.07423,1.64271 -1.61134,2.46408 l -1.62825,0.86354 c 0.53526,-0.8195 1.06986,-1.6394 1.60542,-2.45872 0.617,-0.95811 1.1801,-1.89765 1.73868,-2.86683 0.92106,-1.58426 1.91064,-3.13891 2.94769,-4.68317 1.00576,-1.52721 2.01662,-3.06157 3.04586,-4.55857 l 1.65701,-0.87886 z"
       inkscape:export-filename="D:\nobyself\art.gnome.org\snow\text27f783.png"
       inkscape:export-xdpi="90.000000"
       inkscape:export-ydpi="90.000000" />
    <path
       style="fill:#643200;fill-opacity:1;fill-rule:nonzero;stroke:none"
       id="path9950"
       d="m 107.36993,910.11794 c -0.70508,1.26757 -1.36616,2.56633 -2.01614,3.87609 -0.65095,1.29103 -1.27687,2.57662 -1.82078,3.89389 -0.33479,0.83031 -0.68323,1.63754 -1.07954,2.4599 -0.34224,0.69443 -0.68811,1.38704 -1.03216,2.08057 l -1.36325,0.74506 c 0.34267,-0.69194 0.68464,-1.38421 1.02762,-2.076 0.39235,-0.80886 0.73761,-1.6014 1.07276,-2.41861 0.55537,-1.33596 1.18112,-2.64826 1.85359,-3.95257 0.64638,-1.28963 1.29614,-2.58529 1.97058,-3.85005 l 1.38732,-0.75828 z"
       inkscape:export-filename="D:\nobyself\art.gnome.org\snow\text27f783.png"
       inkscape:export-xdpi="90.000000"
       inkscape:export-ydpi="90.000000" />
    <path
       style="fill:#643200;fill-opacity:1;fill-rule:nonzero;stroke:none"
       id="path9952"
       d="m 105.83787,922.75241 c -0.85767,1.16974 -1.67557,2.37591 -2.48383,3.59437 -0.80689,1.19976 -1.58826,2.39725 -2.29222,3.6364 -0.43573,0.78207 -0.88213,1.53954 -1.37791,2.30605 -0.42618,0.64632 -0.85573,1.29038 -1.28359,1.93559 l -1.44553,0.56921 c 0.42629,-0.6438 0.85193,-1.28801 1.27851,-1.93162 0.49017,-0.75361 0.93158,-1.4969 1.36604,-2.26593 0.71766,-1.25626 1.5022,-2.48027 2.33209,-3.69052 0.80218,-1.19895 1.60846,-2.40345 2.43538,-3.57422 l 1.47106,-0.57933 z"
       inkscape:export-filename="D:\nobyself\art.gnome.org\snow\text27f783.png"
       inkscape:export-xdpi="90.000000"
       inkscape:export-ydpi="90.000000" />
    <path
       style="fill:#643200;fill-opacity:1;fill-rule:nonzero;stroke:none"
       id="path9954"
       d="m 109.32509,920.79065 c -1.34095,1.26987 -2.57524,2.64498 -3.78201,4.05185 -1.21287,1.37438 -2.3699,2.76985 -3.33376,4.31716 -0.58919,0.98503 -1.21425,1.91501 -1.94513,2.81254 -0.6344,0.7488 -1.27746,1.49016 -1.91616,2.23527 l -2.9473,-0.39754 c 0.63591,-0.7441 1.27015,-1.4896 1.90683,-2.23307 0.72463,-0.87976 1.34552,-1.78898 1.93827,-2.75167 0.98604,-1.56476 2.13712,-3.00509 3.39622,-4.37574 1.20275,-1.37754 2.41195,-2.76111 3.68371,-4.06325 l 2.99933,0.40445 z"
       inkscape:export-filename="D:\nobyself\art.gnome.org\snow\text27f783.png"
       inkscape:export-xdpi="90.000000"
       inkscape:export-ydpi="90.000000" />
    <rect
       style="fill:#000000;fill-opacity:1;fill-rule:evenodd;stroke:none"
       id="rect9956"
       width="16.999342"
       height="15.060036"
       x="61.121143"
       y="885.65588"
       inkscape:export-filename="D:\nobyself\art.gnome.org\snow\text27f783.png"
       inkscape:export-xdpi="90.000000"
       inkscape:export-ydpi="90.000000" />
    <rect
       style="fill:#000000;fill-opacity:1;fill-rule:evenodd;stroke:#fafafa;stroke-width:0.58968824;stroke-linecap:butt;stroke-linejoin:miter;stroke-miterlimit:4;stroke-opacity:1;stroke-dasharray:none;stroke-dashoffset:0"
       id="rect9958"
       width="26.703421"
       height="3.1158857"
       x="56.260021"
       y="885.77014"
       inkscape:export-filename="D:\nobyself\art.gnome.org\snow\text27f783.png"
       inkscape:export-xdpi="90.000000"
       inkscape:export-ydpi="90.000000" />
    <path
       style="fill:#643200;fill-opacity:1;fill-rule:nonzero;stroke:none"
       id="path10686"
       d="m 102.8961,908.55586 c -0.0691,0.80898 -0.0849,1.62265 -0.0858,2.43908 -0.0101,0.80729 -2.8e-4,1.60566 0.0971,2.39956 0.0686,0.49841 0.11476,0.98867 0.12472,1.49835 0.002,0.43228 -8.2e-4,0.86454 -0.001,1.29682 l -0.89079,0.7107 c -1.3e-4,-0.43114 -0.001,-0.86227 -8.1e-4,-1.29341 -0.008,-0.50195 -0.05,-0.98407 -0.11247,-1.47601 -0.0954,-0.80609 -0.11732,-1.61778 -0.0938,-2.43705 0.007,-0.80546 0.0137,-1.61478 0.0566,-2.41476 l 0.90649,-0.72328 z"
       inkscape:export-filename="D:\nobyself\art.gnome.org\snow\text27f783.png"
       inkscape:export-xdpi="90.000000"
       inkscape:export-ydpi="90.000000" />
    <path
       style="fill:#643200;fill-opacity:1;fill-rule:nonzero;stroke:none"
       id="path10688"
       d="m 106.73445,914.10036 c -0.70508,1.26757 -1.36616,2.56633 -2.01614,3.87609 -0.65095,1.29103 -1.27687,2.57662 -1.82078,3.89389 -0.33479,0.83031 -0.68323,1.63754 -1.07954,2.4599 -0.34224,0.69443 -0.68811,1.38704 -1.03216,2.08057 l -1.36325,0.74506 c 0.34267,-0.69194 0.68464,-1.38421 1.02762,-2.076 0.39235,-0.80886 0.73761,-1.6014 1.07276,-2.41861 0.55537,-1.33596 1.18112,-2.64826 1.85359,-3.95257 0.64638,-1.28963 1.29614,-2.58529 1.97058,-3.85005 l 1.38732,-0.75828 z"
       inkscape:export-filename="D:\nobyself\art.gnome.org\snow\text27f783.png"
       inkscape:export-xdpi="90.000000"
       inkscape:export-ydpi="90.000000" />
    <path
       style="fill:url(#radialGradient24738);fill-opacity:1;fill-rule:nonzero;stroke:none"
       id="path24736"
       d="m 69.99495,955.65482 c 3.41671,0.27524 6.83611,0.11399 10.25387,0.0857 2.43315,-0.0246 4.8663,-0.0144 7.29946,-0.0244 2.17592,-0.0845 6.263165,-0.10128 8.313675,1.21446 3.923615,7.80088 -4.750285,13.16117 -8.213245,13.36817 -2.18658,-0.05 -4.37334,-0.04 -6.56001,-0.039 -2.17297,-0.011 -4.3459,-0.01 -6.51887,-9e-4 -2.0404,0.614 -3.82058,-1.1855 -5.72657,-2.51151 -1.8817,-0.6539 -3.57975,-2.43122 -5.21405,-4.61718 -1.66407,-1.56842 -3.39666,-1.93485 -5.17612,-2.05792 -3.61964,-0.99668 -9.42154,8.05651 -0.11375,-4.37046 -1.49558,3.67748 -0.90656,3.89184 0.98349,4.13669 2.42906,0.0388 4.85795,-0.0323 7.28703,-0.003 2.71675,0.0366 5.43351,-0.0204 8.15026,-0.0107 2.80545,0.007 5.61081,0.03 8.41628,0.0174 2.36504,-0.0247 4.73014,-0.0272 7.09518,-0.0206 2.18101,6.7e-4 6.948227,-1.95496 8.26714,-0.43304 1.60089,2.70514 2.1034,4.09066 3.17321,9.39922 2.58644,5.9245 -8.1722,11.7717 -11.90619,11.7192 -1.97489,0 -3.85001,-1.435 -5.65378,-3.1566 -1.7207,-0.7422 -3.3517,-1.4519 -5.01507,-2.724 -5.71803,1.2135 -3.07734,0.565 1.88892,-6.6935 2.84814,0.1358 5.69789,0.1032 8.54655,0.062 4.54889,1.0909 8.86775,-4.88024 0.93582,5.4673 0.27002,-3.7634 -2.43105,-2.2157 -4.03965,-2.1992 -2.66212,-0.023 -5.32414,0.019 -7.98624,0.035 -2.15615,0.035 -4.31414,-0.2083 -6.45029,0.3754 -2.05271,0.8314 -4.14611,0.662 -6.221,0.6436 -3.02617,-9.56745 7.58121,-7.48145 10.77932,-7.38987 2.36708,0.67621 4.73747,0.99862 7.125,1.01347 4.04777,8.8253 -6.93849,11.6367 -9.79201,10.7587 -2.81043,-2.1584 -5.12223,-6.5891 -8.0904,-7.4246 -2.37029,-0.2044 -4.80363,-0.3677 -7.00764,0.9723 10.74508,-15.77993 1.01073,9.9556 -3.49762,5.7287 -2.01462,-3.4106 -3.75304,-3.6195 -6.05018,-2.5867 6.38833,-11.82625 4.54316,-4.8527 2.41502,3.8997 -7.3997,11.4907 -7.9081,6.7646 1.18027,-3.8561 2.36768,1.322 4.78577,2.0109 7.10522,1.0479 -10.93115,15.1695 0.11257,-5.7482 2.87116,-9.37417 1.84345,-2.55255 3.84325,-2.33568 5.88483,-1.68672 2.59743,0.74344 3.04278,4.92559 3.10177,10.34399 -4.25735,11.2764 -5.86776,9.9176 -10.45009,6.3992 -1.70809,-2.7161 -3.69319,-4.176 -5.30367,-4.4213 5.81221,-10.3316 4.09522,-3.7124 9.73098,-1.7323 2.14941,0.1918 4.3031,0.1053 6.45418,0.095 2.09304,0.043 4.18386,-0.3168 6.24782,0.5506 1.88462,3.0357 3.31997,2.4269 5.30217,0.2255 -11.10243,13.9853 0.97527,-3.8305 5.87796,-2.1464 2.07073,0.5377 3.06432,3.7919 3.9158,7.8712 -6.05445,10.4905 -3.44337,7.6362 -6.39496,-1.5937 -4.11819,-5.2233 10.40291,-15.81146 -4.28084,0.7323 2.14896,-10.4417 6.14382,-8.9181 10.7334,-8.7159 3.114,-0.3378 5.89929,3.653 8.49508,7.3055 -1.53134,7.7642 -3.01584,6.7107 -6.09901,-0.062 -1.30045,-3.4648 -2.86406,-5.851 -4.61894,-7.7837 -2.28161,-1.7927 -4.75299,-1.0221 -6.96174,1.0212 -3.57696,0.8139 -10.53896,8.3875 -1.0393,-4.0995 -1.03719,5.216 1.9037,3.6899 3.72591,3.7059 3.17014,-0.2619 6.17125,-0.4519 9.18372,1.9459 1.88964,2.3959 3.94448,2.6812 5.71497,5.3016 1.3425,3.2123 0.60255,4.6754 0.0487,8.1981 -0.63839,-0.3709 -6.50744,11.9477 -2.91539,1.6292 0.0524,-4.4189 -1.01021,-7.3533 -2.30824,-10.1484 -5.15638,4.4501 3.56088,-20.6084 0.81054,1.8018 0.3037,13.2136 -5.84138,17.5564 -9.78486,9.5124 -2.05491,-4.6163 -4.08183,-8.4671 -6.95918,-6.9832 -2.59669,3.4741 5.63024,-7.6402 4.23643,-5.6752 -17.01239,23.98395 0.65882,-6.383 -4.8833,6.9347 -6.91244,11.7418 -6.56397,3.5758 -11.7872,-3.977 -5.20321,1.2169 3.99219,-14.90696 1.36902,-1.7895 -3.39238,8.7263 -6.09978,9.3127 -10.18829,9.7252 -2.15544,-0.2512 -4.16185,-2.0479 -6.10627,-4.1239 -8.17726,1.6555 10.12413,-15.8901 -5.69331,4.8726 -2.74348,0.2099 -2.38982,-6.5852 -2.41226,-11.6192 -0.77923,-11.31029 5.01199,-16.61713 9.16592,-15.20004 2.80004,4.42625 5.79944,6.91984 9.04592,8.69074 10.75666,14.3369 -3.83711,9.6024 -8.87299,5.406 -8.60257,-0.1844 -6.82892,-13.00826 0.90181,-12.77252 2.48202,0.0629 4.96411,0.0405 7.44622,0.0516 2.78337,-0.15135 5.54947,-0.0157 8.3205,0.56248 4.09617,1.30464 8.469,-3.41562 -0.71559,8.61984 -0.51718,0.6777 -6.12166,-5.05212 -6.77106,-5.49652 2.23407,-11.7084 -18.04865,4.06702 -15.45606,0.62212 7.5551,-10.03877 3.39849,-4.2966 1.62891,-0.64443 0.25281,5.41063 6.43034,3.59893 9.32972,3.55213 3.13951,-0.041 6.27913,-0.091 9.41863,-0.056 4.34717,0.096 8.69467,0.038 13.04201,0.024 4.13104,2.5239 7.89802,5.8051 12.32728,6.1287 7.14026,3.6516 1.70458,9.6941 -2.74538,15.5668 6.87136,-9.6482 2.28174,-4.6046 7.35507,-4.3861 0.14585,0 0.29171,0 0.43756,0 l -4.94824,8.4276 c -0.14677,-10e-4 -0.29356,0 -0.44037,0 -5.40454,-0.5928 -3.83101,-8.3105 2.40972,-12.977 -5.74136,8.2139 -1.53913,4.7298 -6.94008,1.6173 -4.38641,-0.5279 -8.16611,-4.1499 -12.32561,-6.0757 -4.35674,-0.014 -8.71364,-0.071 -13.07024,0.024 -3.13068,0.035 -6.26143,-0.013 -9.39215,0.015 -2.99718,-0.036 -10.69971,2.4329 -10.01468,-6.4896 7.75653,-16.49496 14.51434,-21.12056 24.0746,-12.87614 12.54164,8.08674 4.68663,14.01284 -2.08682,12.58884 -2.78303,-0.4792 -5.56801,-0.3379 -8.3574,-0.3611 -2.49113,0.011 -4.98233,0.012 -7.47342,-0.021 -4.4531,-2e-4 5.24679,-13.40068 8.86338,-3.2612 10.13484,8.6959 5.17198,15.6965 -0.94563,10.3193 -3.25368,-1.8031 -6.14171,-4.8448 -9.04989,-8.7308 -5.7256,-0.2224 3.52787,-13.05209 1.2849,0.637 -10e-4,4.1509 -0.58623,10.577 1.79347,9.2628 -10.98979,15.2454 1.32522,-7.6593 5.9225,-3.9785 1.9042,1.9945 3.88016,3.6695 5.99356,3.6041 5.77279,-0.8995 1.88482,0.7114 -0.35292,4.6298 1.61957,-7.915 5.41745,-16.347 9.30151,-11.8934 4.51212,6.8655 8.4787,10.4274 1.01885,17.1596 2.16723,-4.9354 4.4987,-8.6911 7.52667,-11.3854 0.69029,-0.6143 2.66313,-2.9751 2.02503,-2.1043 -1.5445,2.1078 -6.20773,8.3089 -4.64266,6.2863 2.0999,-2.7137 4.01597,-6.3327 6.28641,-8.1974 2.9982,-0.3145 5.10666,3.3876 7.21281,8.323 8.53176,16.1138 -3.3701,18.18245 -0.77872,4.151 0.82873,-10.1025 3.565332,-19.09896 8.06788,-16.0514 1.45692,3.3779 4.31555,7.0345 4.45103,12.0869 -1.40702,6.3037 -5.0987,16.1213 -8.06311,11.3003 0.12163,-4.2753 1.17318,-4.6411 0.14075,-7.501 -1.7403,-2.044 -3.77124,-2.4704 -5.50991,-4.8452 -2.96396,-2.1811 -5.97079,-1.712 -9.06182,-1.6107 -2.21838,-0.013 -5.62264,0.6274 -4.54538,-6.8341 4.40975,-5.88449 7.04048,-7.67367 11.57386,-9.93618 2.35367,-1.65602 4.90463,-2.44014 7.23152,-0.14473 1.81757,1.98415 4.89384,1.28516 6.25656,4.76621 3.8935,8.6982 -0.18282,17.1938 -5.70927,18.7436 -2.56834,-3.6792 -5.26144,-7.1236 -8.3595,-6.629 -5.04525,-0.4126 -7.8264,1.3419 -0.74777,-7.9567 -9.80637,14.5527 0.67203,-7.97922 4.46836,0.1348 3.14293,10.1589 1.07535,13.783 -4.13721,16.1789 -0.80143,-3.8242 -1.65919,-6.4026 -3.59537,-6.792 -13.64163,-4.2797 11.67938,-12.1057 -5.65158,2.8415 -2.09196,1.7981 -3.61667,1.7444 -5.54972,-0.9406 -2.05231,-0.4367 -4.11225,-0.4272 -6.17906,-0.3706 -2.16547,0 -4.33975,0.21 -6.49859,-0.239 -5.37243,-2.6344 -8.54869,-7.3909 0.0395,-15.59189 1.95672,0.87079 3.72712,3.44059 5.56895,5.52679 5.88219,4.2866 2.67299,3.4807 -0.0964,7.9209 4.6e-4,-4.981 -0.20549,-8.0222 -2.63572,-8.492 -2.02554,-0.3776 -3.86793,-0.061 -5.69665,2.2881 10.52079,-14.74748 0.16468,5.7459 -2.86061,9.4468 -2.42416,0.1707 -4.78516,-0.6187 -7.18107,-1.4883 7.96457,-12.7875 1.34732,0.8989 -1.81796,1.4918 1.73887,-10.0481 2.80627,-13.7086 7.99688,-18.69822 2.35974,-0.85008 4.19598,0.23693 6.23447,3.36662 6.79132,4.3904 -7.59401,9.3257 -2.26612,1.0586 1.78763,-2.77382 3.66001,-5.23507 5.49002,-7.85261 2.38074,-0.54128 4.80615,-0.59293 7.20899,-0.29368 2.91132,1.31722 5.21531,5.84313 8.08154,7.58879 6.2235,1.1063 4.36483,-0.5937 -0.13048,5.8172 -2.38322,-0.056 -4.73529,-0.6443 -7.10662,-1.0681 -6.19126,-0.5049 -10.39384,-0.2159 -0.90887,-9.39237 2.06069,-0.0142 4.1343,0.0879 6.16823,-0.82689 2.16464,-0.2938 4.33861,-0.20389 6.50972,-0.20521 2.65789,0.0164 5.31573,0.0617 7.97352,-0.0188 2.04401,0.0306 5.17318,-1.32013 4.76944,5.07877 -4.92587,7.0243 -6.39701,9.371 -11.52224,8.447 -2.87107,-0.035 -5.74344,0.08 -8.61342,-0.081 2.22079,-4.9207 5.25785,-12.20264 8.14563,-9.85988 1.67991,1.46048 3.39785,1.62228 5.08382,2.97828 1.77569,1.4724 3.57244,2.8734 5.49135,2.6655 1.49997,-0.023 12.69205,-5.57576 -0.53448,3.6613 0.58355,-5.3318 0.25309,-7.4304 -2.34601,-7.5148 -2.18016,0.013 -4.36035,0 -6.54052,0 -2.357,0.01 -4.71405,0 -7.07104,-0.021 -2.81228,-0.013 -5.62446,0.011 -8.43673,0.017 -2.7125,0.01 -5.42499,-0.048 -8.13751,-0.011 -2.4434,0.034 -4.88729,0.035 -7.33052,0.019 -2.16671,-0.6707 -6.002164,-2.45333 -4.547774,-7.32243 4.17177,-5.62783 9.087714,-10.01053 13.597904,-9.25178 1.85134,0.23031 3.68538,0.7191 5.369,2.66502 1.61322,2.02864 3.28624,3.60154 5.10865,4.31057 1.8755,1.33963 3.62506,2.80128 5.62986,2.19679 2.17347,0.006 4.3469,0.01 6.52036,-10e-4 2.18514,0.005 4.37039,0.0608 6.5554,0.0137 4.98273,-1.24964 -3.0107,11.64273 -3.7999,2.79294 -2.01832,-0.7414 -4.11508,-0.50789 -6.1858,-0.50616 -2.42363,-0.01 -4.84723,3.1e-4 -7.27084,-0.0244 -3.45134,-0.0289 -6.90409,-0.18504 -10.35449,0.0857 l 5.01317,-8.53847 3e-5,-2.1e-4 z"
       inkscape:export-filename="D:\nobyself\art.gnome.org\snow\text27f783.png"
       inkscape:export-xdpi="90.000000"
       inkscape:export-ydpi="90.000000"
       sodipodi:nodetypes="ccccccccccccssccccccccccccccccccccccccccccccccccccccccccccccccccccscccccccccccccscsccccccccccccccccccccccccccccccssscccccccccccccccccccccccccccccccccscccccccccccccccccccsscccccccccccccc" />
  </g>
</svg>
